<?xml version="1.0" encoding="iso-8859-1"?>
<!-- Generator: Adobe Illustrator 17.1.0, SVG Export Plug-In . SVG Version: 6.00 Build 0)  -->
<!DOCTYPE svg PUBLIC "-//W3C//DTD SVG 1.1//EN" "http://www.w3.org/Graphics/SVG/1.1/DTD/svg11.dtd">
<svg version="1.1" id="Capa_1" xmlns="http://www.w3.org/2000/svg" xmlns:xlink="http://www.w3.org/1999/xlink" x="0px" y="0px"
	 viewBox="0 0 296.75 296.75" style="enable-background:new 0 0 296.75 296.75;" xml:space="preserve">
<g>
	<path d="M12.5,0.125C5.597,0.125,0,5.722,0,12.625v171c0,6.903,5.597,12.5,12.5,12.5s12.5-5.597,12.5-12.5v-171
		C25,5.722,19.403,0.125,12.5,0.125z"/>
	<path d="M94.5,0.125c-6.903,0-12.5,5.597-12.5,12.5v171c0,6.903,5.597,12.5,12.5,12.5s12.5-5.597,12.5-12.5v-171
		C107,5.722,101.403,0.125,94.5,0.125z"/>
	<path d="M135.5,0.125c-6.903,0-12.5,5.597-12.5,12.5v171c0,6.903,5.597,12.5,12.5,12.5s12.5-5.597,12.5-12.5v-171
		C148,5.722,142.403,0.125,135.5,0.125z"/>
	<path d="M66,12.625c0-6.903-5.597-12.5-12.5-12.5S41,5.722,41,12.625v196h-7v32.523c0,4.643,3.647,8.358,8.087,9.072l3.46,46.404
		h17.07l2.877-46.404c4.439-0.714,7.504-4.43,7.504-9.072v-32.523h-7V12.625z"/>
	<path d="M255.25,56.381c-20.406,0-37.408,14.81-40.852,34.244H189v-78c0-6.903-5.597-12.5-12.5-12.5S164,5.722,164,12.625v171
		c0,6.903,5.597,12.5,12.5,12.5s12.5-5.597,12.5-12.5v-78h25.485c3.64,19.193,20.528,33.756,40.765,33.756
		c22.883,0,41.5-18.617,41.5-41.5C296.75,74.998,278.133,56.381,255.25,56.381z M280.732,90.625H262V72.35
		C271,74.813,278.21,81.78,280.732,90.625z M247,72.59v18.035h-17.232C232.211,82.059,239,75.248,247,72.59z M229.907,105.625H247
		v17.547C239,120.564,232.46,113.962,229.907,105.625z M262,123.412v-17.787h18.593C277.956,114.238,271,120.993,262,123.412z"/>
</g>
<g>
</g>
<g>
</g>
<g>
</g>
<g>
</g>
<g>
</g>
<g>
</g>
<g>
</g>
<g>
</g>
<g>
</g>
<g>
</g>
<g>
</g>
<g>
</g>
<g>
</g>
<g>
</g>
<g>
</g>
</svg>
