<?xml version="1.0" standalone="no"?>
<!DOCTYPE svg PUBLIC "-//W3C//DTD SVG 20010904//EN"
 "http://www.w3.org/TR/2001/REC-SVG-20010904/DTD/svg10.dtd">
<svg version="1.0" xmlns="http://www.w3.org/2000/svg"
 width="6925.000000pt" height="16975.000000pt" viewBox="0 0 6925.000000 16975.000000"
 preserveAspectRatio="xMidYMid meet">

<g transform="translate(0.000000,16975.000000) scale(0.100000,-0.100000)"
fill="#000000" stroke="none">
<path d="M6422 169727 l-22 -23 0 -927 0 -927 -3178 0 -3179 0 -21 -23 -22
-23 0 -83880 0 -83881 23 -21 23 -22 34580 0 34581 0 21 23 22 23 0 11430 0
11431 -23 21 -23 22 -15677 0 -15677 0 0 72428 0 72429 -23 21 c-23 21 -30 22
-273 22 l-250 0 -100 100 c-111 110 -134 120 -179 75 -38 -37 -32 -68 21 -125
l47 -50 -293 0 -293 0 47 50 c53 57 59 88 21 125 -45 45 -68 35 -179 -75
l-100 -100 -260 0 -261 1 -65 80 c-104 129 -74 119 -360 119 -289 0 -266 8
-345 -119 l-50 -80 -6327 -1 -6328 0 0 928 0 929 -23 21 c-31 29 -77 29 -105
-1 l-22 -23 0 -980 0 -981 23 -21 23 -22 6377 0 6377 0 0 -74 c0 -73 0 -74 59
-164 33 -50 69 -95 80 -101 11 -6 64 -11 117 -11 l98 0 98 98 98 98 0 77 0 77
104 0 c104 0 105 0 125 -29 14 -19 21 -45 21 -75 0 -55 32 -96 75 -96 14 0 37
11 50 25 22 21 25 33 25 100 l0 75 200 0 200 0 0 -77 0 -77 98 -98 98 -98 103
0 102 0 56 53 55 52 17 -25 c9 -14 28 -37 43 -52 25 -27 30 -28 129 -28 l103
0 98 98 98 98 0 77 0 77 200 0 200 0 0 -72428 0 -72429 23 -21 23 -22 15677 0
15677 0 0 -11325 0 -11325 -34475 0 -34475 0 0 83775 0 83775 3178 0 3179 0
21 23 22 23 0 980 0 981 -23 21 c-31 29 -77 29 -105 -1z m28928 -1852 l0 -25
-105 0 c-58 0 -105 2 -105 5 0 3 6 14 12 25 11 18 24 20 105 20 93 0 93 0 93
-25z m210 0 l23 -25 -41 0 c-38 0 -42 2 -42 25 0 18 5 25 18 25 10 0 29 -11
42 -25z m-210 -222 c0 -44 -4 -52 -52 -100 -46 -47 -57 -53 -93 -53 -37 0 -42
4 -72 50 -26 39 -33 60 -33 100 l0 50 125 0 125 0 0 -47z m1400 0 c0 -44 -4
-52 -52 -100 -48 -48 -56 -53 -97 -53 -41 0 -50 5 -98 52 -49 49 -53 56 -53
100 l0 48 150 0 150 0 0 -47z m400 0 c0 -44 -4 -52 -52 -100 -46 -47 -57 -53
-93 -53 -37 0 -42 4 -72 50 -26 39 -33 60 -33 100 l0 50 125 0 125 0 0 -47z"/>
<path d="M7272 169727 l-22 -23 0 -1452 0 -1452 -3078 0 -3079 0 -21 -23 -22
-23 0 -20530 0 -20531 23 -21 c23 -22 30 -22 300 -22 l277 0 0 -250 0 -250
-278 0 c-278 0 -279 0 -300 -23 l-22 -23 0 -20455 0 -20456 23 -21 c23 -22 30
-22 300 -22 l277 0 0 -250 0 -250 -278 0 c-278 0 -279 0 -300 -23 l-22 -23 0
-20355 0 -20356 23 -21 c23 -22 30 -22 300 -22 l277 0 0 -250 0 -250 -278 0
c-278 0 -279 0 -300 -23 l-22 -23 0 -20630 0 -20631 23 -21 23 -22 17830 0
17831 0 21 23 c22 23 22 29 22 325 l0 302 450 0 450 0 0 -303 0 -304 23 -21
23 -22 15230 0 15231 0 21 23 22 23 0 10405 0 10406 -23 21 -23 22 -15702 0
-15702 0 0 10203 0 10204 -23 21 c-23 22 -29 22 -325 22 l-302 0 0 250 0 250
303 0 304 0 21 23 22 23 0 5055 0 5056 -23 21 -23 22 -2380 0 -2381 0 -21 -23
c-21 -22 -22 -32 -22 -200 l0 -177 -225 0 -225 0 0 550 0 550 2628 0 2629 0
21 23 22 23 0 14905 0 14906 -23 21 c-23 22 -29 22 -325 22 l-302 0 0 250 0
250 303 0 304 0 21 23 22 23 0 20455 0 20456 -23 21 c-23 22 -29 22 -325 22
l-302 0 0 250 0 250 303 0 304 0 21 23 22 23 0 17902 0 17902 225 0 226 0 24
25 c35 34 32 71 -9 109 -18 17 -130 101 -249 186 l-216 155 -1 163 0 162 225
0 226 0 24 25 c45 44 35 69 -73 177 -108 108 -133 118 -177 73 -30 -30 -32
-64 -4 -99 l20 -26 -120 0 -121 0 0 280 0 279 183 -118 c100 -65 192 -123 204
-129 34 -18 62 -14 88 13 l25 24 0 301 0 301 -25 24 c-13 14 -36 25 -50 25
-14 0 -37 -11 -50 -25 -25 -24 -25 -24 -25 -240 0 -118 -2 -215 -5 -215 -2 0
-80 49 -172 109 l-168 109 -3 1783 -2 1783 -22 23 -21 23 -7629 0 -7628 0 0
1453 0 1454 -23 21 c-31 29 -77 29 -105 -1 l-22 -23 0 -1505 0 -1506 23 -21
23 -22 6902 0 6902 0 0 -553 0 -554 23 -21 23 -22 530 0 531 0 21 23 22 23 0
552 0 552 150 0 150 0 0 -1681 c0 -924 -4 -1678 -8 -1675 -4 3 -61 39 -126 80
-65 42 -129 76 -143 76 -13 0 -35 -11 -48 -25 l-25 -24 0 -301 0 -301 25 -24
c13 -14 36 -25 50 -25 14 0 37 11 50 25 l25 24 0 216 c0 119 4 215 8 213 4 -1
49 -29 100 -62 l92 -59 0 -328 0 -329 -100 0 -100 0 0 50 c0 41 -5 56 -25 75
-13 14 -36 25 -50 25 -14 0 -37 -11 -50 -25 -24 -23 -25 -28 -25 -175 0 -147
1 -152 25 -175 13 -14 36 -25 50 -25 33 0 75 42 75 75 l0 25 100 0 100 0 0
-125 c0 -119 -1 -125 -25 -149 -25 -25 -25 -27 -25 -201 l0 -175 -125 0 c-120
0 -127 -1 -150 -25 -32 -31 -32 -69 0 -100 23 -24 30 -25 150 -25 l125 0 0
-50 c0 -41 5 -56 25 -76 l25 -25 0 -17774 0 -17775 -303 0 -304 0 -21 -23
c-22 -23 -22 -28 -22 -378 l0 -356 23 -21 c23 -22 29 -22 325 -22 l302 0 0
-20350 0 -20350 -303 0 -304 0 -21 -23 c-22 -23 -22 -28 -22 -378 l0 -356 23
-21 c23 -22 29 -22 325 -22 l302 0 0 -14800 0 -14800 -3649 0 c-3578 0 -3649
0 -3672 -19 l-24 -19 -5 -1193 -5 -1193 -425 1189 c-290 814 -431 1197 -447
1213 -31 31 -76 29 -102 -4 l-21 -27 0 -2799 0 -2799 25 -24 c30 -31 69 -32
98 -2 15 15 161 402 447 1190 l425 1168 5 -1171 5 -1172 24 -19 c22 -18 54
-19 1022 -19 l999 0 0 -675 0 -675 -1350 0 -1351 0 -24 -25 -25 -24 0 -1401 0
-1401 25 -24 24 -25 1351 0 1350 0 0 -8278 0 -8279 23 -21 c23 -22 28 -22 353
-22 l331 0 21 23 22 23 0 9527 0 9527 -39 0 c-54 0 -90 15 -101 42 -5 14 -9
-3764 -9 -9484 l-1 -9508 -225 0 -225 0 0 10625 0 10625 225 0 225 0 1 -607
c0 -376 4 -599 9 -585 11 27 47 42 101 42 l39 0 0 598 1 597 650 615 c357 338
669 633 694 654 l45 39 54 -51 55 -52 296 0 c191 0 303 4 316 11 11 6 47 51
80 101 l59 90 0 225 0 224 -25 24 c-13 14 -36 25 -50 25 -33 0 -75 -42 -75
-75 0 -25 0 -25 -90 -25 -49 0 -90 2 -90 5 0 10 1347 1279 1381 1301 21 13 40
31 43 41 3 10 83 90 177 178 250 234 229 202 229 351 0 119 -1 126 -25 149
l-24 25 -1851 0 -1850 0 0 125 0 125 2275 0 2275 0 -1 -2847 -1 -2848 -26 77
c-15 43 -36 86 -47 97 -21 19 -165 71 -200 71 -37 0 -180 -52 -201 -74 -22
-21 -74 -164 -74 -201 0 -37 52 -180 74 -201 21 -22 164 -74 201 -74 35 0 179
52 200 71 11 11 32 54 47 97 l26 77 1 -2072 1 -2073 -303 0 -304 0 -21 -23
c-22 -23 -22 -28 -22 -378 l0 -356 23 -21 c23 -22 29 -22 325 -22 l302 0 0
-10203 0 -10204 23 -21 23 -22 15702 0 15702 0 0 -10300 0 -10300 -15125 0
-15125 0 0 303 0 304 -23 21 -23 22 -555 0 -556 0 -21 -23 c-22 -23 -22 -29
-22 -325 l0 -302 -17725 0 -17725 0 0 20525 0 20525 278 0 c278 0 279 0 300
23 22 23 22 28 22 378 l0 356 -23 21 c-23 22 -30 22 -300 22 l-277 0 0 20250
0 20250 278 0 c278 0 279 0 300 23 22 23 22 28 22 378 l0 356 -23 21 c-23 22
-30 22 -300 22 l-277 0 0 20350 0 20350 278 0 c278 0 279 0 300 23 22 23 22
28 22 378 l0 356 -23 21 c-23 22 -30 22 -300 22 l-277 0 0 20425 0 20425 3078
0 3079 0 21 23 22 23 0 1505 0 1506 -23 21 c-31 29 -77 29 -105 -1z m28770
-3352 c33 -44 80 -119 104 -167 l44 -88 -41 -102 c-28 -71 -60 -129 -104 -188
l-64 -85 -103 -20 -103 -21 -103 20 -103 20 -64 86 c-44 59 -76 117 -104 188
l-41 102 44 88 c24 48 71 123 104 167 l61 80 103 20 103 21 103 -21 103 -20
61 -80z m947 -4722 c2 -2 -39 -3 -92 -3 l-97 0 0 70 0 71 93 -68 c50 -37 94
-68 96 -70z m-5639 -110603 l0 -2700 -950 0 -950 0 0 2700 0 2700 950 0 950 0
0 -2700z m-2475 1150 c229 -641 414 -1174 412 -1185 -4 -22 -827 -2287 -833
-2294 -2 -2 -4 1043 -4 2324 0 1281 2 2326 4 2324 2 -2 192 -528 421 -1169z
m3075 225 c0 -67 3 -79 25 -100 24 -25 25 -25 225 -25 l200 0 0 -174 c0 -156
2 -176 19 -197 l19 -24 1360 -5 1360 -5 -684 -647 -683 -648 -121 0 -120 0 0
25 c0 33 -42 75 -75 75 -14 0 -37 -11 -50 -25 -25 -24 -25 -24 -25 -234 l0
-210 -702 -666 -703 -665 -247 0 -248 0 0 1800 0 1800 225 0 225 0 0 -75z
m3250 -200 l0 -75 -1275 0 -1275 0 0 75 0 75 1275 0 1275 0 0 -75z m335 24
c-79 -80 -85 -81 -85 -9 l0 60 67 0 67 0 -49 -51z m-1905 -1802 c0 -2 -18 -18
-40 -36 l-40 -32 0 36 c0 34 1 35 40 35 22 0 40 -1 40 -3z m570 -97 c0 -96 -1
-102 -32 -150 l-33 -50 -241 0 -240 0 -29 30 c-17 18 -25 34 -19 39 5 4 62 58
126 120 l118 111 175 0 175 0 0 -100z m2241 -3078 c38 -15 56 -85 37 -143 -12
-37 -20 -45 -58 -57 -37 -13 -49 -13 -88 -1 -41 13 -47 19 -60 58 -13 38 -13
50 -1 89 12 37 21 48 49 58 37 14 78 12 121 -4z m-6771 -600 l-125 -26 -240
-160 -240 -161 -88 -140 c-178 -285 -169 -268 -198 -405 l-27 -125 -1 523 -1
522 523 -1 522 -1 -125 -26z m1679 -494 l-1 -523 -27 125 c-29 137 -20 120
-199 405 l-87 140 -235 158 c-129 87 -251 162 -270 167 -19 6 -71 19 -115 29
l-80 19 508 1 507 1 -1 -522z m-1049 368 l196 -43 211 -141 211 -141 118 -188
118 -188 47 -235 47 -235 -47 -235 -47 -235 -118 -188 -118 -188 -209 -140
-209 -139 -215 -24 c-205 -24 -221 -24 -347 -11 -73 8 -136 15 -140 15 -5 0
-8 20 -8 45 l0 45 -60 0 -60 0 0 -40 0 -41 -37 7 c-24 5 -113 57 -244 145
l-207 138 -118 188 -118 188 -47 235 -47 235 47 235 47 235 118 188 118 188
212 142 211 141 230 47 c127 25 239 45 250 43 11 -3 108 -24 215 -48z m-1452
-1771 c23 -39 81 -133 129 -210 l88 -140 243 -162 243 -163 -401 0 -400 0 1
498 1 497 27 -125 c22 -104 34 -138 69 -195z m2502 -180 l0 -495 -400 0 -401
0 243 163 243 162 88 140 c177 284 173 274 198 405 13 66 24 120 26 120 2 0 3
-223 3 -495z"/>
<path d="M35670 166345 c0 -12 14 -15 68 -15 l67 -1 -65 -22 c-39 -13 -65 -28
-65 -36 0 -9 26 -23 65 -37 l65 -22 -68 -1 c-50 -1 -68 -4 -64 -13 2 -9 30
-13 93 -13 81 0 89 2 89 19 0 14 -14 24 -55 38 -30 10 -62 21 -70 24 -9 4 12
15 55 29 56 17 71 26 73 43 3 21 0 22 -92 22 -79 0 -96 -3 -96 -15z"/>
<path d="M35670 166116 c0 -8 14 -19 30 -25 26 -9 30 -15 30 -46 0 -32 -4 -38
-30 -48 -27 -10 -43 -37 -22 -37 25 0 177 70 180 83 2 10 -25 26 -88 51 -103
41 -100 41 -100 22z m140 -67 c12 -6 9 -10 -13 -18 -41 -16 -47 -14 -47 15 0
22 3 24 23 18 12 -3 29 -10 37 -15z"/>
<path d="M35686 165938 c-32 -46 -8 -118 39 -118 25 0 55 33 55 60 0 9 7 25
15 36 15 19 15 19 30 0 20 -26 19 -32 -6 -57 -14 -14 -18 -24 -11 -31 7 -7 17
-3 31 11 32 32 27 92 -10 112 -29 15 -57 -5 -71 -52 -14 -47 -35 -60 -54 -34
-19 26 -18 32 11 59 30 28 31 36 6 36 -11 0 -27 -10 -35 -22z"/>
<path d="M29672 46370 l3 -63 120 -42 120 -43 0 -173 0 -173 -120 -46 -120
-45 -3 -63 c-2 -34 1 -62 5 -62 4 0 190 74 413 164 l405 163 3 64 2 64 -406
155 c-224 85 -411 157 -416 159 -5 1 -8 -24 -6 -59z m509 -244 c81 -30 164
-58 185 -62 22 -4 32 -9 24 -12 -8 -2 -92 -33 -186 -68 -94 -35 -176 -64 -183
-64 -8 0 -11 40 -11 130 0 97 3 130 13 130 6 0 78 -25 158 -54z"/>
<path d="M29672 45513 l3 -58 58 -3 57 -3 0 61 0 60 -60 0 -61 0 3 -57z"/>
<path d="M29670 45235 l0 -55 335 -2 336 -3 -336 -114 -336 -114 3 -50 3 -50
330 -116 330 -116 -332 -3 -333 -2 0 -55 0 -55 415 0 415 0 0 74 0 74 -340
118 c-187 66 -340 121 -340 124 0 3 153 56 340 119 l340 115 0 83 0 83 -415 0
-415 0 0 -55z"/>
<path d="M35025 169725 c-39 -38 -33 -70 24 -126 l48 -49 299 0 299 1 70 37
c81 43 100 74 74 120 -25 45 -61 50 -124 19 l-55 -27 -251 0 -251 0 -30 25
c-37 32 -72 32 -103 0z"/>
<path d="M35375 169425 l-25 -24 0 -301 0 -301 25 -24 c13 -14 36 -25 50 -25
14 0 37 11 50 25 l25 24 0 301 0 301 -25 24 c-13 14 -36 25 -50 25 -14 0 -37
-11 -50 -25z"/>
<path d="M36325 169425 l-25 -24 0 -301 0 -301 25 -24 c13 -14 36 -25 50 -25
14 0 37 11 50 25 25 24 25 24 25 240 0 118 2 215 4 215 3 0 134 -84 293 -187
418 -271 454 -293 480 -293 13 0 35 11 48 25 l25 24 0 301 0 301 -25 24 c-13
14 -36 25 -50 25 -14 0 -37 -11 -50 -25 -25 -24 -25 -24 -25 -240 0 -118 -2
-215 -4 -215 -3 0 -134 84 -293 187 -418 271 -454 293 -480 293 -13 0 -35 -11
-48 -25z"/>
<path d="M34975 168575 c-25 -24 -25 -27 -25 -200 0 -173 0 -176 25 -200 13
-14 36 -25 50 -25 14 0 37 11 50 25 20 19 25 34 25 75 l0 50 375 0 376 0 24
25 c45 44 35 69 -73 177 -108 108 -133 118 -177 73 -30 -30 -32 -64 -4 -99
l20 -26 -270 0 -271 0 0 50 c0 41 -5 56 -25 75 -13 14 -36 25 -50 25 -14 0
-37 -11 -50 -25z"/>
<path d="M36325 168575 c-25 -24 -25 -27 -25 -200 0 -173 0 -176 25 -200 13
-14 36 -25 50 -25 14 0 37 11 50 25 20 19 25 34 25 75 l0 50 400 0 401 0 24
25 c45 44 35 69 -73 177 -108 108 -133 118 -177 73 -30 -30 -32 -64 -4 -99
l20 -26 -295 0 -296 0 0 50 c0 41 -5 56 -25 75 -13 14 -36 25 -50 25 -14 0
-37 -11 -50 -25z"/>
<path d="M35222 165127 l-22 -23 0 -555 0 -556 23 -21 23 -22 530 0 531 0 21
23 22 23 0 555 0 556 -23 21 -23 22 -530 0 -531 0 -21 -23z m823 -307 c44 -59
76 -117 104 -188 l41 -102 -44 -88 c-24 -48 -71 -123 -104 -167 l-61 -80 -103
-20 -103 -21 -103 21 -103 20 -61 80 c-33 44 -80 119 -104 167 l-44 88 41 102
c28 71 60 129 104 188 l64 85 103 20 103 21 103 -20 103 -20 64 -86z"/>
<path d="M35670 164795 c0 -12 14 -15 68 -15 l67 -1 -65 -22 c-40 -14 -65 -28
-65 -37 0 -9 24 -22 65 -35 l65 -20 -68 -3 c-48 -2 -67 -7 -64 -15 2 -8 32
-12 93 -12 81 0 89 2 89 19 0 14 -14 24 -55 38 -30 10 -62 21 -70 24 -9 4 12
15 55 29 56 17 71 26 73 43 3 21 0 22 -92 22 -79 0 -96 -3 -96 -15z"/>
<path d="M35670 164566 c0 -8 14 -19 30 -25 26 -9 30 -15 30 -46 0 -32 -4 -38
-30 -48 -27 -10 -43 -37 -22 -37 25 0 177 70 180 83 2 10 -25 26 -88 51 -103
41 -100 41 -100 22z m120 -57 l33 -12 -24 -13 c-36 -20 -49 -17 -49 11 0 29
-2 28 40 14z"/>
<path d="M35686 164388 c-32 -46 -8 -118 39 -118 25 0 55 33 55 60 0 9 7 25
15 36 15 19 15 19 30 0 20 -26 19 -32 -6 -57 -14 -14 -18 -24 -11 -31 16 -16
52 27 52 62 0 32 -30 70 -55 70 -17 0 -41 -34 -51 -73 -8 -36 -33 -46 -50 -22
-19 26 -18 32 11 59 30 28 31 36 6 36 -11 0 -27 -10 -35 -22z"/>
<path d="M34975 163425 l-25 -24 0 -252 0 -253 73 -73 73 -73 301 0 301 0 90
59 c50 33 95 69 101 80 7 12 11 110 11 266 l0 246 -25 24 c-13 14 -36 25 -50
25 -14 0 -37 -11 -50 -25 -20 -19 -25 -34 -25 -75 l0 -50 -325 0 -325 0 0 50
c0 41 -5 56 -25 75 -13 14 -36 25 -50 25 -14 0 -37 -11 -50 -25z m775 -367 l0
-93 -50 -32 -50 -33 -247 0 -247 0 -28 27 c-27 26 -28 30 -28 125 l0 98 325 0
325 0 0 -92z"/>
<path d="M35375 162575 l-25 -24 0 -301 0 -301 25 -24 c13 -14 36 -25 50 -25
14 0 37 11 50 25 l25 24 0 301 0 301 -25 24 c-13 14 -36 25 -50 25 -14 0 -37
-11 -50 -25z"/>
<path d="M34975 161725 c-24 -23 -25 -28 -25 -175 0 -147 1 -152 25 -175 13
-14 36 -25 50 -25 14 0 37 11 50 25 20 19 25 34 25 75 l0 50 375 0 376 0 24
25 c27 26 31 54 14 86 -15 29 -186 139 -216 139 -31 0 -73 -42 -73 -75 l0 -25
-250 0 -250 0 0 25 c0 33 -42 75 -75 75 -14 0 -37 -11 -50 -25z"/>
<path d="M35462 161141 c-50 -33 -95 -69 -101 -80 -7 -12 -11 -96 -11 -215 0
-246 3 -245 -144 -69 l-106 127 0 74 c0 64 -3 76 -25 97 -13 14 -36 25 -50 25
-14 0 -37 -11 -50 -25 -23 -22 -25 -31 -25 -122 0 -76 4 -104 17 -123 40 -59
263 -318 278 -324 9 -3 116 -6 238 -6 l221 0 98 98 98 98 0 173 c0 103 -4 180
-11 192 -6 11 -51 47 -101 80 -89 58 -91 59 -163 59 -72 0 -74 -1 -163 -59z
m238 -123 l50 -33 0 -115 0 -114 -52 -53 -52 -53 -73 0 -73 0 0 168 0 167 48
32 c60 41 90 41 152 1z"/>
<path d="M6285 152969 c-82 -15 -204 -38 -269 -50 l-119 -22 -238 -158 -238
-158 -149 -223 c-82 -123 -154 -233 -160 -244 -6 -12 -35 -149 -63 -305 l-52
-283 32 -176 c17 -96 41 -226 53 -289 l21 -115 158 -237 158 -238 223 -149
c123 -82 233 -154 244 -160 12 -6 149 -35 305 -63 l283 -52 176 32 c96 17 226
41 289 53 l115 21 238 158 238 159 159 238 158 238 21 115 c12 63 36 193 53
289 l32 176 -52 283 c-28 156 -57 293 -63 305 -6 11 -78 121 -160 243 l-148
223 -223 148 c-122 82 -231 154 -243 160 -26 14 -561 112 -601 111 -15 -1 -95
-14 -178 -30z m471 -173 l241 -44 212 -141 211 -141 141 -211 141 -212 48
-261 48 -261 -48 -261 -48 -261 -141 -212 -141 -211 -211 -141 -212 -141 -261
-48 -261 -48 -261 48 -261 48 -212 141 -211 141 -141 211 -141 211 -25 137
c-15 83 -34 153 -49 181 -22 41 -24 56 -24 180 0 105 4 142 16 165 9 17 31
109 49 206 l33 176 141 212 141 211 212 141 211 141 256 48 c141 26 267 46
281 44 14 -2 134 -24 266 -48z"/>
<path d="M7083 152188 c-36 -35 -69 -70 -73 -79 -5 -8 -23 -92 -40 -185 -17
-93 -33 -181 -36 -195 -5 -24 -2 -27 38 -32 54 -7 82 -38 74 -81 -9 -45 -29
-59 -91 -64 l-57 -5 4 -33 c4 -34 4 -34 -39 -34 -42 0 -43 -1 -43 -34 0 -27
-5 -35 -24 -40 -49 -12 -104 33 -94 78 2 6 -18 32 -43 56 -26 25 -49 55 -53
66 -10 32 10 73 40 84 l26 10 -38 43 c-22 23 -101 111 -177 194 -124 136 -144
154 -194 173 -121 45 -129 46 -254 15 -69 -17 -123 -36 -136 -48 -30 -26 -30
-73 -1 -104 l21 -23 -111 -112 c-94 -96 -118 -128 -161 -211 -28 -53 -51 -99
-51 -102 0 -3 9 -5 20 -5 25 0 25 -9 -1 -40 -11 -14 -18 -19 -14 -12 4 8 -3
12 -24 12 -29 0 -31 -2 -31 -40 0 -29 4 -40 15 -40 9 0 28 -12 43 -27 14 -14
38 -27 52 -29 14 -1 31 -3 38 -5 8 -3 33 27 61 70 59 93 100 110 153 64 15
-14 22 -7 77 78 34 52 61 88 61 80 0 -10 9 -6 28 12 15 15 39 27 52 27 13 0
36 12 51 26 l27 26 12 -21 c6 -12 10 -27 8 -34 -2 -7 19 -34 46 -59 35 -34 49
-55 51 -78 1 -18 11 -37 22 -45 29 -21 35 -56 18 -106 -13 -35 -13 -45 -2 -58
8 -9 99 -115 204 -236 l190 -220 121 -60 121 -59 98 23 c169 40 145 15 293
310 71 144 130 263 130 266 0 3 -9 5 -19 5 -34 0 -65 34 -65 71 0 36 38 99 60
99 6 0 18 8 25 18 7 9 9 14 4 9 -5 -4 -17 11 -27 33 -34 73 1 120 90 120 34 0
42 3 42 18 0 30 -51 275 -61 294 -28 53 -316 238 -370 238 -12 0 -48 -26 -86
-62z m-1199 -278 c-15 -22 -28 -40 -31 -40 -6 0 18 43 35 63 25 29 24 19 -4
-23z m286 -180 c0 -4 -9 -15 -20 -25 -20 -18 -20 -17 -20 13 0 25 3 29 20 25
11 -3 20 -9 20 -13z m-455 -50 c3 -5 -13 -37 -37 -71 l-43 -61 -3 37 c-3 31 2
43 29 71 35 36 44 40 54 24z m1274 -236 c7 -6 -20 -32 -39 -37 -13 -3 -20 0
-20 8 0 7 -5 15 -12 17 -6 2 -8 9 -4 16 6 10 62 7 75 -4z"/>
<path d="M15785 152969 c-82 -15 -204 -38 -269 -50 l-119 -22 -238 -158 -238
-158 -149 -223 c-82 -123 -154 -233 -160 -244 -6 -12 -35 -149 -63 -305 l-52
-283 32 -176 c17 -96 41 -226 53 -289 l21 -115 158 -237 158 -238 223 -149
c123 -82 233 -154 244 -160 12 -6 148 -34 304 -63 l282 -51 266 53 265 52 261
156 261 156 138 205 c76 113 149 223 162 245 18 31 36 106 76 325 l52 286 -52
284 c-40 218 -58 294 -76 325 -13 22 -86 132 -162 245 l-138 205 -261 156
-261 155 -259 52 c-142 29 -270 52 -284 51 -14 -1 -92 -14 -175 -30z m445
-172 l216 -43 237 -143 238 -143 140 -210 141 -211 48 -261 48 -261 -48 -261
-48 -261 -141 -211 -140 -210 -238 -143 -237 -143 -235 -47 -235 -47 -262 48
-261 48 -212 141 -211 141 -141 211 -141 211 -25 137 c-15 83 -34 153 -49 181
-22 41 -24 56 -24 180 0 105 4 142 16 165 9 17 31 109 49 206 l33 176 141 212
141 211 212 141 211 141 256 48 c141 26 267 46 281 44 14 -2 122 -24 240 -47z"/>
<path d="M16533 152188 c-36 -35 -69 -70 -73 -79 -5 -8 -23 -92 -40 -185 -17
-93 -33 -181 -36 -195 -5 -26 -4 -27 61 -31 77 -5 99 -21 99 -73 0 -55 -22
-69 -115 -74 l-81 -3 4 -34 c3 -26 0 -34 -12 -34 -9 0 -29 -13 -45 -30 l-29
-30 30 -1 29 -1 -26 -9 c-51 -19 -109 30 -96 81 3 11 -5 15 -29 16 -48 1 -118
72 -118 120 0 43 19 62 71 72 l41 7 -149 165 c-214 236 -196 222 -332 256
l-117 28 -88 -28 c-110 -36 -133 -56 -131 -112 2 -28 -4 -50 -18 -70 -11 -16
-32 -51 -46 -79 -14 -27 -46 -70 -72 -95 -31 -29 -61 -75 -88 -130 -56 -116
-61 -131 -37 -98 11 14 30 37 41 50 19 21 19 20 -2 -17 -41 -73 -60 -95 -82
-95 -28 0 -77 -48 -77 -77 0 -20 3 -21 26 -13 32 13 71 3 87 -21 8 -10 25 -27
39 -39 l26 -20 66 89 c66 88 90 105 132 95 17 -4 27 1 40 23 10 15 45 56 78
91 59 60 62 62 113 62 30 0 55 -5 60 -12 5 -7 39 -42 77 -78 l68 -65 -22 43
-21 43 21 -11 c23 -12 44 -56 36 -76 -3 -7 6 -19 19 -28 32 -21 39 -63 20
-110 l-16 -38 34 -41 c19 -23 94 -109 166 -192 86 -98 131 -158 131 -173 0
-44 21 -63 143 -124 l122 -61 140 27 c76 15 147 32 157 37 14 8 278 514 278
533 0 2 -23 6 -51 8 -28 3 -58 13 -67 21 -27 27 -20 79 16 125 30 37 35 40 59
31 20 -7 30 -6 41 5 14 13 13 17 -6 33 -32 26 -38 73 -14 102 14 19 31 25 75
29 47 4 57 8 57 23 0 10 -25 81 -55 158 l-56 138 -92 90 c-86 84 -98 92 -172
117 -44 14 -91 26 -103 26 -15 0 -47 -22 -89 -62z m-1016 -490 c-3 -8 -6 -5
-6 6 -1 11 2 17 5 13 3 -3 4 -12 1 -19z m120 0 c-3 -8 -6 -5 -6 6 -1 11 2 17
5 13 3 -3 4 -12 1 -19z m803 -258 c0 -5 -7 -10 -15 -10 -8 0 -15 5 -15 10 0 6
7 10 15 10 8 0 15 -4 15 -10z"/>
<path d="M26393 152471 l-253 -78 -235 -156 -235 -157 -158 -238 -158 -237
-53 -267 -53 -266 51 -282 c29 -156 57 -292 63 -304 6 -11 78 -121 160 -244
l149 -223 237 -157 237 -158 267 -53 266 -53 282 51 c156 29 292 57 304 63 11
6 121 78 243 160 l223 148 148 223 c82 122 154 232 160 243 6 12 34 148 63
304 l51 282 -53 266 -53 267 -158 237 -158 238 -237 158 -238 158 -285 77
c-157 43 -294 77 -305 76 -11 0 -134 -36 -272 -78z m557 -149 l245 -68 212
-142 213 -142 142 -213 142 -212 47 -234 47 -235 -48 -262 -48 -261 -141 -212
-141 -211 -211 -141 -212 -141 -261 -48 -262 -48 -235 47 -234 47 -212 142
-213 142 -140 210 c-112 167 -142 221 -151 262 -6 29 -17 68 -25 85 -8 18 -14
39 -12 47 2 7 -8 23 -22 34 -25 20 -25 21 -28 216 -3 182 -2 200 17 239 12 24
34 106 49 183 l28 139 142 212 142 213 213 142 212 142 220 67 c121 37 234 68
250 68 17 0 140 -30 275 -67z"/>
<path d="M27288 151715 c-37 -19 -72 -43 -77 -53 -5 -10 -24 -95 -41 -188 -17
-93 -33 -181 -36 -195 -5 -24 -2 -27 37 -32 53 -7 73 -27 73 -72 0 -49 -23
-67 -88 -73 -53 -4 -56 -6 -56 -31 0 -44 35 -74 81 -69 22 2 39 1 39 -2 -1 -3
-9 -21 -20 -40 l-19 -35 -1 28 c0 22 -5 27 -24 27 -13 0 -27 6 -29 13 -4 10
-6 10 -6 0 -1 -9 -18 -13 -51 -13 -36 0 -50 -4 -50 -14 0 -21 -38 -8 -56 20
-9 12 -14 33 -12 45 2 18 -2 22 -30 24 -40 3 -109 69 -118 112 -8 41 22 75 73
82 l41 6 -149 165 c-213 235 -196 222 -329 255 l-114 28 -115 -28 c-72 -17
-125 -35 -138 -48 -30 -27 -30 -73 -1 -104 l22 -24 -66 -67 c-52 -53 -78 -92
-128 -192 -75 -150 -85 -174 -67 -163 11 6 -2 -16 -40 -72 -13 -19 -13 -19
-13 5 l0 24 -30 -29 c-33 -31 -39 -55 -15 -55 9 0 28 -12 43 -27 14 -14 39
-27 54 -28 16 -2 34 -7 41 -13 10 -8 23 8 56 69 54 101 97 121 153 72 15 -14
20 -10 51 38 44 68 85 106 117 111 17 2 26 10 28 26 5 32 42 30 42 -3 0 -21 5
-25 28 -25 27 0 104 -44 100 -58 -5 -16 58 -66 79 -63 26 3 73 -39 73 -66 0
-10 -14 -47 -30 -81 -36 -76 -57 -41 180 -296 l175 -188 117 -59 118 -59 119
0 c98 0 122 3 140 18 12 9 79 143 150 297 l130 280 -37 10 c-57 16 -78 73 -44
115 16 19 22 21 40 11 20 -11 22 -9 22 14 0 18 5 25 19 25 11 0 23 5 27 11 9
15 -17 30 -31 19 -17 -14 -48 66 -37 99 12 37 46 51 125 51 86 0 86 3 8 158
-48 94 -72 129 -125 182 -44 43 -66 72 -66 88 0 12 -11 34 -25 47 -22 23 -31
25 -122 25 -92 -1 -102 -3 -165 -35z m-1118 -234 c0 -19 -18 -31 -48 -31 -12
0 -11 5 8 25 28 30 40 32 40 6z m222 -283 c-9 -9 -12 -1 -11 33 l1 44 11 -33
c7 -24 7 -36 -1 -44z m-43 40 c-17 -34 -19 -34 -19 -5 0 18 5 27 15 27 13 0
14 -4 4 -22z m-409 -8 c-6 -11 -13 -20 -16 -20 -2 0 0 9 6 20 6 11 13 20 16
20 2 0 0 -9 -6 -20z m-70 -109 c-5 -11 -15 -23 -21 -27 -6 -3 -3 5 6 20 20 30
30 35 15 7z"/>
<path d="M14925 149825 l-25 -24 0 -252 0 -253 73 -73 73 -73 301 0 301 0 90
59 c50 33 95 69 101 80 7 12 11 110 11 266 l0 246 -25 24 c-13 14 -36 25 -50
25 -14 0 -37 -11 -50 -25 -20 -19 -25 -34 -25 -75 l0 -50 -325 0 -325 0 0 50
c0 41 -5 56 -25 75 -13 14 -36 25 -50 25 -14 0 -37 -11 -50 -25z m775 -367 l0
-93 -50 -32 -50 -33 -247 0 -247 0 -28 27 c-27 26 -28 30 -28 125 l0 98 325 0
325 0 0 -92z"/>
<path d="M16275 149825 l-25 -24 0 -301 0 -301 25 -24 c13 -14 36 -25 50 -25
14 0 37 11 50 25 25 24 25 24 25 240 0 118 2 215 4 215 3 0 134 -84 293 -187
418 -271 454 -293 480 -293 13 0 35 11 48 25 l25 24 0 301 0 301 -25 24 c-13
14 -36 25 -50 25 -14 0 -37 -11 -50 -25 -25 -24 -25 -24 -25 -240 0 -118 -2
-215 -4 -215 -3 0 -134 84 -293 187 -418 271 -454 293 -480 293 -13 0 -35 -11
-48 -25z"/>
<path d="M5225 149725 l-25 -24 0 -227 0 -228 98 -98 98 -98 304 0 304 0 98
98 98 98 0 228 0 227 -25 24 c-13 14 -36 25 -50 25 -33 0 -75 -42 -75 -75 l0
-25 -350 0 -350 0 0 25 c0 33 -42 75 -75 75 -14 0 -37 -11 -50 -25z m825 -322
l0 -97 -52 -53 -52 -53 -245 0 -245 0 -53 52 -53 52 0 98 0 98 350 0 350 0 0
-97z"/>
<path d="M6625 149725 l-25 -24 0 -301 0 -301 25 -24 c29 -30 64 -32 96 -6 24
19 24 23 29 239 l5 220 225 -156 c428 -294 470 -322 496 -322 14 0 36 11 49
25 l25 24 0 301 0 301 -25 24 c-29 30 -64 32 -96 6 -24 -19 -24 -23 -29 -239
l-5 -220 -225 156 c-428 294 -470 322 -496 322 -14 0 -36 -11 -49 -25z"/>
<path d="M25075 149175 l-25 -24 0 -227 0 -228 98 -98 98 -98 304 0 304 0 98
98 98 98 0 228 0 227 -25 24 c-13 14 -36 25 -50 25 -14 0 -37 -11 -50 -25 -20
-19 -25 -34 -25 -75 l0 -50 -350 0 -350 0 0 50 c0 41 -5 56 -25 75 -13 14 -36
25 -50 25 -14 0 -37 -11 -50 -25z m825 -347 l0 -72 -52 -53 -52 -53 -245 0
-245 0 -53 52 -53 52 0 73 0 73 350 0 350 0 0 -72z"/>
<path d="M26475 149175 l-25 -24 0 -301 0 -301 25 -24 c13 -14 36 -25 50 -25
14 0 37 11 50 25 25 24 25 24 25 240 0 118 2 215 4 215 3 0 134 -84 293 -187
418 -271 454 -293 480 -293 13 0 35 11 48 25 l25 24 0 301 0 301 -25 24 c-13
14 -36 25 -50 25 -14 0 -37 -11 -50 -25 -25 -24 -25 -24 -25 -240 0 -118 -2
-215 -4 -215 -3 0 -134 84 -293 187 -418 271 -454 293 -480 293 -13 0 -35 -11
-48 -25z"/>
<path d="M15325 148975 l-25 -24 0 -301 0 -301 25 -24 c13 -14 36 -25 50 -25
14 0 37 11 50 25 l25 24 0 301 0 301 -25 24 c-13 14 -36 25 -50 25 -14 0 -37
-11 -50 -25z"/>
<path d="M16275 148975 c-25 -24 -25 -27 -25 -200 0 -173 0 -176 25 -200 13
-14 36 -25 50 -25 14 0 37 11 50 25 20 19 25 34 25 75 l0 50 400 0 401 0 24
25 c45 44 35 69 -73 177 -108 108 -133 118 -177 73 -30 -30 -32 -64 -4 -99
l20 -26 -295 0 -296 0 0 50 c0 41 -5 56 -25 75 -13 14 -36 25 -50 25 -14 0
-37 -11 -50 -25z"/>
<path d="M5625 148925 l-25 -24 0 -301 0 -301 25 -24 c13 -14 36 -25 50 -25
14 0 37 11 50 25 l25 24 0 301 0 301 -25 24 c-13 14 -36 25 -50 25 -14 0 -37
-11 -50 -25z"/>
<path d="M6625 148925 c-25 -24 -25 -27 -25 -200 0 -173 0 -176 25 -200 13
-14 36 -25 50 -25 14 0 37 11 50 25 20 19 25 34 25 75 l0 50 375 0 376 0 24
25 c45 44 35 69 -73 177 -108 108 -133 118 -177 73 -30 -30 -32 -64 -4 -99
l20 -26 -270 0 -271 0 0 50 c0 41 -5 56 -25 75 -13 14 -36 25 -50 25 -14 0
-37 -11 -50 -25z"/>
<path d="M16575 148425 c-25 -24 -25 -27 -25 -200 l0 -175 -125 0 c-120 0
-127 -1 -150 -25 -14 -13 -25 -36 -25 -50 0 -14 11 -37 25 -50 23 -24 30 -25
150 -25 l125 0 0 -50 c0 -41 5 -56 25 -75 13 -14 36 -25 50 -25 14 0 37 11 50
25 20 19 25 34 25 75 l0 50 250 0 251 0 24 25 c27 26 31 54 15 85 -8 15 -421
324 -559 417 -43 30 -76 29 -106 -2z m251 -290 l116 -85 -121 0 -121 0 0 85
c0 47 2 85 5 85 2 0 57 -38 121 -85z"/>
<path d="M6875 148375 c-25 -24 -25 -25 -25 -225 l0 -200 -100 0 c-94 0 -103
-2 -125 -25 -14 -13 -25 -36 -25 -50 0 -14 11 -37 25 -50 22 -23 31 -25 125
-25 l100 0 0 -25 c0 -33 42 -75 75 -75 33 0 75 42 75 75 l0 25 250 0 251 0 24
25 c26 26 31 54 15 85 -9 16 -506 429 -570 473 -34 24 -67 21 -95 -8z m284
-339 l103 -86 -131 0 -131 0 0 106 0 105 28 -20 c15 -11 74 -58 131 -105z"/>
<path d="M25525 148325 l-25 -24 0 -301 0 -301 25 -24 c13 -14 36 -25 50 -25
14 0 37 11 50 25 l25 24 0 301 0 301 -25 24 c-13 14 -36 25 -50 25 -14 0 -37
-11 -50 -25z"/>
<path d="M26475 148325 c-24 -23 -25 -28 -25 -175 0 -147 1 -152 25 -175 13
-14 36 -25 50 -25 14 0 37 11 50 25 20 19 25 34 25 75 l0 50 400 0 401 0 24
25 c27 26 31 54 14 86 -15 29 -186 139 -216 139 -31 0 -73 -42 -73 -75 l0 -25
-275 0 -275 0 0 25 c0 33 -42 75 -75 75 -14 0 -37 -11 -50 -25z"/>
<path d="M14973 148077 l-73 -73 0 -101 0 -101 59 -90 c33 -50 69 -95 80 -101
13 -7 125 -11 317 -11 l298 0 98 98 98 98 0 98 c0 53 -5 106 -11 117 -6 11
-51 47 -101 80 l-90 59 -301 0 -301 0 -73 -73z m677 -109 c46 -30 50 -36 50
-73 0 -34 -7 -46 -52 -92 l-52 -53 -241 0 -240 0 -32 50 c-44 66 -46 130 -6
172 l27 28 248 0 248 0 50 -32z"/>
<path d="M5298 148002 l-98 -98 0 -79 0 -79 98 -98 98 -98 304 0 304 0 98 98
98 98 0 79 0 79 -98 98 -98 98 -304 0 -304 0 -98 -98z m699 -104 c29 -29 53
-61 53 -72 0 -11 -23 -44 -52 -73 l-52 -53 -245 0 -245 0 -53 52 c-29 29 -53
61 -53 72 0 11 23 44 52 73 l52 53 245 0 245 0 53 -52z"/>
<path d="M26775 147775 c-25 -24 -25 -27 -25 -200 l0 -175 -125 0 c-120 0
-127 -1 -150 -25 -14 -13 -25 -36 -25 -50 0 -14 11 -37 25 -50 23 -24 30 -25
150 -25 l125 0 0 -50 c0 -41 5 -56 25 -75 13 -14 36 -25 50 -25 14 0 37 11 50
25 20 19 25 34 25 75 l0 50 250 0 251 0 24 25 c27 26 31 54 15 85 -8 15 -421
324 -559 417 -43 30 -76 29 -106 -2z m251 -290 l116 -85 -121 0 -121 0 0 85
c0 47 2 85 5 85 2 0 57 -38 121 -85z"/>
<path d="M25148 147452 l-98 -98 0 -104 0 -104 98 -98 98 -98 304 0 304 0 98
98 98 98 0 104 0 104 -98 98 -98 98 -304 0 -304 0 -98 -98z m699 -104 c48 -48
53 -56 53 -97 0 -41 -5 -50 -52 -98 l-52 -53 -245 0 -245 0 -53 52 c-48 48
-53 56 -53 97 0 41 5 50 52 98 l52 53 245 0 245 0 53 -52z"/>
<path d="M14925 147475 l-25 -24 0 -326 0 -326 25 -24 c13 -14 36 -25 50 -25
14 0 37 11 50 25 l25 24 0 276 0 275 73 0 73 0 52 -53 52 -53 0 -149 0 -149
98 -98 98 -98 79 0 79 0 98 98 98 98 0 179 0 179 -98 98 c-108 108 -133 118
-177 73 -42 -41 -34 -68 50 -154 l75 -77 0 -120 0 -120 -53 -52 c-29 -29 -62
-52 -73 -52 -11 0 -43 24 -72 53 l-52 53 0 149 0 149 -98 98 -98 98 -153 0
c-148 0 -153 -1 -176 -25z"/>
<path d="M5225 147375 c-24 -23 -25 -28 -25 -175 0 -147 1 -152 25 -175 13
-14 36 -25 50 -25 33 0 75 42 75 75 l0 25 400 0 401 0 24 25 c45 44 35 69 -73
177 -108 108 -133 118 -177 73 -30 -30 -32 -64 -4 -99 l20 -26 -295 0 -296 0
0 50 c0 41 -5 56 -25 75 -13 14 -36 25 -50 25 -14 0 -37 -11 -50 -25z"/>
<path d="M25148 146752 l-98 -98 0 -154 0 -154 98 -98 98 -98 103 0 103 0 62
59 61 60 62 -60 61 -59 78 0 78 0 98 98 98 98 0 154 0 154 -98 98 c-108 108
-133 118 -177 73 -42 -41 -34 -68 50 -154 l75 -77 0 -95 0 -95 -53 -52 c-29
-29 -62 -52 -73 -52 -11 0 -43 24 -72 53 -48 49 -52 56 -52 100 0 38 -5 53
-25 72 -53 54 -125 13 -125 -72 0 -45 -4 -52 -53 -101 -48 -47 -57 -52 -98
-52 -41 0 -49 5 -97 53 l-52 53 0 94 0 94 75 77 c84 86 92 113 50 154 -44 45
-69 35 -177 -73z"/>
<path d="M13575 132625 c-31 -30 -32 -69 -2 -98 15 -16 373 -144 1180 -422
l1158 -400 -1262 -5 -1261 -5 -19 -24 c-18 -23 -19 -55 -19 -1096 0 -1041 1
-1073 19 -1096 l19 -24 1261 -5 1261 -5 -1152 -398 c-634 -219 -1164 -406
-1178 -416 -36 -26 -38 -73 -6 -106 l25 -25 2801 0 2801 0 24 25 c31 30 32 69
3 98 -16 16 -261 103 -828 296 -443 150 -973 330 -1179 399 l-374 127 1283 5
1282 5 19 24 c18 23 19 55 19 1096 0 1041 -1 1073 -19 1096 l-19 24 -1282 5
-1283 5 374 127 c206 69 736 249 1179 399 567 193 812 280 828 296 29 29 28
68 -3 98 l-24 25 -2801 0 -2801 0 -24 -25z m5065 -150 c-210 -74 -2254 -765
-2265 -765 -10 0 -1929 660 -2225 765 l-65 24 2310 0 2310 0 -65 -24z m660
-1900 l0 -975 -2900 0 -2900 0 0 975 0 975 2900 0 2900 0 0 -975z m-1756
-1527 l1158 -393 -1150 -3 c-633 -1 -1671 -1 -2306 0 l-1156 3 1132 392 c623
216 1140 392 1148 393 8 0 536 -176 1174 -392z"/>
<path d="M6735 106119 c-82 -15 -204 -38 -269 -50 l-119 -22 -238 -158 -238
-158 -149 -223 c-82 -123 -154 -233 -160 -244 -6 -12 -35 -149 -63 -305 l-52
-283 32 -176 c17 -96 41 -226 53 -289 l21 -115 158 -237 158 -238 223 -149
c123 -82 233 -154 244 -160 12 -6 148 -34 304 -63 l282 -51 266 53 267 53 237
158 238 158 158 237 158 238 77 285 c43 157 77 290 77 295 0 6 -34 138 -77
295 l-77 285 -158 238 -158 237 -237 158 -238 158 -260 52 c-143 29 -271 52
-285 51 -14 -1 -92 -14 -175 -30z m445 -172 l215 -43 212 -142 213 -142 142
-213 142 -212 69 -250 c38 -137 69 -259 69 -270 0 -11 -31 -132 -69 -270 l-69
-250 -142 -212 -142 -213 -213 -142 -212 -142 -234 -47 -235 -47 -262 48 -261
48 -212 141 -211 141 -141 211 -141 212 -40 221 c-21 121 -43 239 -47 261 -4
22 -3 60 1 85 5 25 26 142 47 261 l39 216 141 211 141 212 212 141 211 141
256 48 c141 26 267 46 281 44 14 -2 122 -24 240 -47z"/>
<path d="M7483 105338 c-36 -35 -69 -70 -74 -79 -11 -21 -80 -401 -74 -407 2
-3 14 -10 27 -16 31 -16 35 -36 6 -36 -32 0 -68 -39 -68 -73 0 -67 -26 -43
-389 355 -157 173 -142 163 -314 203 l-77 19 -90 -29 c-58 -18 -98 -38 -114
-54 -49 -53 -409 -558 -437 -613 -36 -71 -36 -94 -3 -161 45 -90 55 -97 148
-97 128 1 169 28 334 220 74 85 137 156 141 158 7 2 148 -146 509 -531 58 -62
92 -107 92 -121 0 -39 26 -60 149 -121 l121 -59 116 28 c75 18 124 36 138 50
13 11 58 82 101 156 43 74 122 209 175 300 l98 165 28 142 28 142 -57 144 -58
144 -92 90 c-86 84 -98 92 -172 117 -44 14 -91 26 -103 26 -15 0 -47 -22 -89
-62z"/>
<path d="M16094 106097 l-251 -52 -237 -157 -236 -158 -148 -222 c-82 -123
-154 -233 -160 -244 -6 -12 -35 -149 -63 -305 l-52 -283 32 -176 c17 -96 41
-226 53 -289 l21 -115 158 -238 159 -238 238 -158 237 -158 267 -53 266 -53
282 51 c156 29 292 57 304 63 11 6 121 78 244 160 l223 149 158 238 158 237
21 115 c12 63 36 193 53 289 l32 176 -52 283 c-28 156 -57 293 -63 305 -6 11
-78 121 -160 243 l-148 223 -223 148 c-122 82 -231 154 -243 160 -24 13 -559
113 -596 111 -12 0 -136 -24 -274 -52z m562 -151 l241 -44 212 -141 211 -141
141 -211 141 -212 48 -261 48 -261 -48 -261 -48 -261 -141 -212 -141 -211
-211 -141 -212 -141 -261 -48 -262 -48 -235 47 -234 47 -212 142 -213 142
-141 211 -141 212 -40 221 c-21 121 -43 239 -46 261 -8 40 -6 54 57 401 l29
162 141 211 141 211 213 142 212 142 230 47 c127 26 241 45 255 43 14 -2 134
-24 266 -48z"/>
<path d="M16974 105328 l-72 -73 -22 -125 c-12 -69 -30 -164 -39 -211 -11 -58
-14 -91 -7 -102 7 -11 3 -23 -17 -46 -14 -17 -28 -40 -32 -51 -5 -15 -15 -20
-39 -20 -35 0 -15 -22 -335 369 -89 108 -145 168 -165 176 -17 7 -73 23 -125
35 l-94 23 -119 -28 c-82 -20 -124 -35 -138 -50 -12 -12 -110 -145 -220 -296
l-200 -274 0 -78 c0 -64 5 -87 26 -130 45 -90 56 -97 148 -97 l81 0 195 195
196 196 124 -143 c69 -79 211 -242 316 -363 l191 -220 121 -60 121 -59 98 23
c169 40 140 8 320 362 154 304 263 552 263 594 -1 11 -26 83 -58 160 l-57 140
-95 73 c-100 77 -234 152 -272 152 -14 0 -48 -26 -94 -72z"/>
<path d="M26935 105869 c-82 -15 -204 -38 -269 -50 l-119 -22 -238 -158 -238
-158 -149 -223 c-82 -123 -154 -233 -160 -244 -6 -12 -34 -148 -63 -304 l-51
-282 53 -266 52 -265 156 -261 156 -261 205 -138 c113 -76 223 -149 245 -162
31 -18 107 -36 325 -76 l284 -52 286 52 c219 40 294 58 325 76 22 13 132 86
245 162 l205 138 156 261 156 261 52 265 53 266 -51 282 c-29 156 -57 292 -63
304 -6 11 -78 121 -160 243 l-148 223 -223 148 c-122 82 -231 154 -243 160
-26 14 -561 112 -601 111 -15 -1 -95 -14 -178 -30z m471 -173 l241 -44 212
-141 211 -141 141 -211 141 -212 48 -261 48 -262 -47 -235 -47 -235 -143 -237
-143 -238 -210 -140 -211 -141 -261 -48 -261 -48 -261 48 -261 48 -211 141
-211 140 -144 243 -145 243 -18 100 c-12 67 -26 113 -43 140 -24 37 -26 50
-29 183 -3 125 -1 148 16 185 11 23 34 117 50 208 l30 167 141 211 141 211
212 141 211 141 256 48 c141 26 267 46 281 44 14 -2 134 -24 266 -48z"/>
<path d="M27733 105088 c-36 -35 -69 -70 -73 -79 -5 -8 -23 -92 -40 -185 -17
-93 -33 -181 -36 -195 -5 -24 -2 -27 37 -32 53 -7 73 -27 73 -72 0 -49 -22
-67 -89 -73 l-57 -5 4 -33 c4 -34 4 -34 -39 -34 -42 0 -43 -1 -43 -34 0 -27
-5 -35 -24 -40 -49 -12 -104 33 -94 78 2 6 -18 32 -43 56 -26 25 -49 55 -53
66 -9 30 9 71 38 86 24 13 24 13 -125 178 -203 224 -202 223 -303 256 l-86 28
-117 -28 c-74 -18 -126 -36 -140 -49 -30 -26 -30 -73 -1 -104 l21 -23 -112
-113 c-92 -93 -120 -129 -155 -198 -42 -83 -58 -119 -53 -119 2 0 36 45 77
100 41 55 80 100 88 100 16 0 18 4 -76 -135 -68 -99 -108 -153 -88 -117 5 8
-2 12 -23 12 -29 0 -31 -2 -31 -40 0 -34 4 -41 25 -46 14 -3 32 -15 40 -27 7
-11 27 -21 42 -22 15 -2 34 -4 41 -6 8 -3 33 27 61 70 59 93 100 110 153 64
14 -13 22 -5 77 79 34 51 61 86 61 79 0 -10 10 -6 28 12 15 15 39 27 52 27 13
0 36 12 51 26 l27 26 12 -21 c6 -12 10 -27 8 -34 -2 -7 19 -34 46 -59 35 -34
49 -55 51 -78 1 -18 11 -37 22 -45 29 -21 35 -56 18 -106 -13 -35 -13 -45 -2
-58 8 -9 99 -115 203 -235 169 -196 199 -226 278 -278 48 -32 96 -58 105 -58
29 0 275 51 294 62 14 7 277 513 277 533 0 3 -20 5 -45 5 -101 0 -130 107 -40
144 19 8 35 20 35 26 0 7 8 9 19 5 10 -3 24 1 31 10 10 12 9 18 -9 32 -31 26
-37 73 -13 102 14 19 31 25 75 29 45 4 57 8 57 22 0 28 -51 274 -61 292 -28
53 -316 238 -370 238 -12 0 -48 -26 -86 -62z m-1199 -278 c-15 -22 -28 -40
-31 -40 -6 0 18 43 35 63 25 29 24 19 -4 -23z m259 -185 c-7 -21 -13 -19 -13
6 0 11 4 18 10 14 5 -3 7 -12 3 -20z m846 -281 c7 -6 -20 -32 -39 -37 -13 -3
-20 0 -20 8 0 7 -5 15 -12 17 -6 2 -8 9 -4 16 6 10 62 7 75 -4z"/>
<path d="M5625 103075 l-25 -24 0 -227 0 -228 98 -98 98 -98 304 0 304 0 98
98 98 98 0 228 0 227 -25 24 c-13 14 -36 25 -50 25 -33 0 -75 -42 -75 -75 l0
-25 -350 0 -350 0 0 25 c0 33 -42 75 -75 75 -14 0 -37 -11 -50 -25z m825 -322
l0 -97 -52 -53 -52 -53 -245 0 -245 0 -53 52 -53 52 0 98 0 98 350 0 350 0 0
-97z"/>
<path d="M14975 103025 l-25 -24 0 -227 0 -228 98 -98 98 -98 304 0 304 0 98
98 98 98 0 228 0 227 -25 24 c-13 14 -36 25 -50 25 -14 0 -37 -11 -50 -25 -20
-19 -25 -34 -25 -75 l0 -50 -350 0 -350 0 0 50 c0 41 -5 56 -25 75 -13 14 -36
25 -50 25 -14 0 -37 -11 -50 -25z m825 -347 l0 -72 -52 -53 -52 -53 -245 0
-245 0 -53 52 -53 52 0 73 0 73 350 0 350 0 0 -72z"/>
<path d="M25875 102825 l-25 -24 0 -227 0 -228 98 -98 98 -98 298 0 c192 0
304 4 317 11 11 6 47 51 80 101 l59 90 0 225 0 224 -25 24 c-13 14 -36 25 -50
25 -14 0 -37 -11 -50 -25 -20 -19 -25 -34 -25 -75 l0 -50 -325 0 -325 0 0 50
c0 41 -5 56 -25 75 -13 14 -36 25 -50 25 -14 0 -37 -11 -50 -25z m775 -350 c0
-68 -3 -80 -32 -125 l-33 -50 -240 0 -239 0 -53 52 -53 52 0 73 0 73 325 0
325 0 0 -75z"/>
<path d="M6025 102275 l-25 -24 0 -301 0 -301 25 -24 c13 -14 36 -25 50 -25
14 0 37 11 50 25 l25 24 0 301 0 301 -25 24 c-13 14 -36 25 -50 25 -14 0 -37
-11 -50 -25z"/>
<path d="M7025 102275 l-25 -24 0 -301 0 -301 25 -24 c29 -30 64 -32 96 -6 24
19 24 23 29 239 l5 220 225 -156 c428 -294 470 -322 496 -322 14 0 36 11 49
25 l25 24 0 301 0 301 -25 24 c-29 30 -64 32 -96 6 -24 -19 -24 -23 -29 -239
l-5 -220 -225 156 c-428 294 -470 322 -496 322 -14 0 -36 -11 -49 -25z"/>
<path d="M15375 102175 l-25 -24 0 -301 0 -301 25 -24 c13 -14 36 -25 50 -25
14 0 37 11 50 25 l25 24 0 301 0 301 -25 24 c-13 14 -36 25 -50 25 -14 0 -37
-11 -50 -25z"/>
<path d="M16375 102175 l-25 -24 0 -301 0 -301 25 -24 c29 -30 64 -32 96 -6
24 19 24 23 29 239 l5 220 225 -156 c428 -294 470 -322 496 -322 14 0 36 11
49 25 l25 24 0 301 0 301 -25 24 c-29 30 -64 32 -96 6 -24 -19 -24 -23 -29
-239 l-5 -220 -225 156 c-428 294 -470 322 -496 322 -14 0 -36 -11 -49 -25z"/>
<path d="M26275 101975 l-25 -24 0 -301 0 -301 25 -24 c13 -14 36 -25 50 -25
14 0 37 11 50 25 l25 24 0 301 0 301 -25 24 c-13 14 -36 25 -50 25 -14 0 -37
-11 -50 -25z"/>
<path d="M27275 101975 l-25 -24 0 -301 0 -301 25 -24 c29 -30 64 -32 96 -6
24 19 24 23 29 239 l5 220 225 -156 c428 -294 470 -322 496 -322 14 0 36 11
49 25 l25 24 0 301 0 301 -25 24 c-29 30 -64 32 -96 6 -24 -19 -24 -23 -29
-239 l-5 -220 -225 156 c-428 294 -470 322 -496 322 -14 0 -36 -11 -49 -25z"/>
<path d="M5698 101352 l-98 -98 0 -79 0 -79 98 -98 98 -98 304 0 304 0 98 98
98 98 0 79 0 79 -98 98 -98 98 -304 0 -304 0 -98 -98z m699 -104 c29 -29 53
-61 53 -72 0 -11 -23 -44 -52 -73 l-52 -53 -245 0 -245 0 -53 52 c-29 29 -53
61 -53 72 0 11 23 44 52 73 l52 53 245 0 245 0 53 -52z"/>
<path d="M7025 101425 c-24 -23 -25 -28 -25 -175 0 -147 1 -152 25 -175 13
-14 36 -25 50 -25 33 0 75 42 75 75 l0 25 375 0 376 0 24 25 c45 44 35 69 -73
177 -108 108 -133 118 -177 73 -30 -30 -32 -64 -4 -99 l20 -26 -270 0 -271 0
0 50 c0 41 -5 56 -25 75 -13 14 -36 25 -50 25 -14 0 -37 -11 -50 -25z"/>
<path d="M15048 101302 l-98 -98 0 -98 c0 -53 5 -106 11 -117 6 -11 51 -47
101 -80 l90 -59 298 0 298 0 90 59 c50 33 95 69 101 80 6 11 11 64 11 117 l0
98 -98 98 -98 98 -304 0 -304 0 -98 -98z m699 -104 c47 -46 53 -57 53 -93 0
-37 -4 -42 -50 -72 l-50 -33 -250 0 -250 0 -50 33 c-46 29 -50 35 -50 72 0 34
7 46 52 92 l52 53 245 0 245 0 53 -52z"/>
<path d="M16375 101375 c-25 -24 -25 -27 -25 -200 0 -173 0 -176 25 -200 13
-14 36 -25 50 -25 14 0 37 11 50 25 20 19 25 34 25 75 l0 50 375 0 376 0 24
25 c45 44 35 69 -73 177 -108 108 -133 118 -177 73 -30 -30 -32 -64 -4 -99
l20 -26 -270 0 -271 0 0 50 c0 41 -5 56 -25 75 -13 14 -36 25 -50 25 -14 0
-37 -11 -50 -25z"/>
<path d="M25948 101102 l-98 -98 0 -98 c0 -53 5 -106 11 -117 6 -11 51 -47
101 -80 l90 -59 301 0 301 0 73 73 73 73 0 101 0 101 -59 90 c-33 50 -69 95
-80 101 -13 7 -125 11 -317 11 l-298 0 -98 -98z m670 -102 c43 -66 45 -130 5
-172 l-27 -28 -248 0 -248 0 -50 33 c-46 29 -50 35 -50 72 0 34 7 46 52 92
l52 53 241 0 240 0 33 -50z"/>
<path d="M27275 101175 c-25 -24 -25 -27 -25 -200 0 -173 0 -176 25 -200 13
-14 36 -25 50 -25 14 0 37 11 50 25 20 19 25 34 25 75 l0 50 375 0 376 0 24
25 c45 44 35 69 -73 177 -108 108 -133 118 -177 73 -30 -30 -32 -64 -4 -99
l20 -26 -270 0 -271 0 0 50 c0 41 -5 56 -25 75 -13 14 -36 25 -50 25 -14 0
-37 -11 -50 -25z"/>
<path d="M7275 100875 c-25 -24 -25 -27 -25 -200 l0 -175 -100 0 c-94 0 -103
-2 -125 -25 -14 -13 -25 -36 -25 -50 0 -14 11 -37 25 -50 22 -23 31 -25 125
-25 l100 0 0 -50 c0 -41 5 -56 25 -75 13 -14 36 -25 50 -25 14 0 37 11 50 25
20 19 25 34 25 75 l0 50 250 0 251 0 24 25 c27 26 31 54 15 85 -8 15 -421 324
-559 417 -43 30 -76 29 -106 -2z m251 -290 l116 -85 -121 0 -121 0 0 85 c0 47
2 85 5 85 2 0 57 -38 121 -85z"/>
<path d="M16625 100825 c-25 -24 -25 -25 -25 -225 l0 -200 -100 0 c-94 0 -103
-2 -125 -25 -14 -13 -25 -36 -25 -50 0 -14 11 -37 25 -50 22 -23 31 -25 125
-25 l100 0 0 -25 c0 -33 42 -75 75 -75 33 0 75 42 75 75 l0 25 250 0 251 0 24
25 c26 26 31 54 15 85 -9 16 -506 429 -570 473 -34 24 -67 21 -95 -8z m284
-339 l103 -86 -131 0 -131 0 0 106 0 105 28 -20 c15 -11 74 -58 131 -105z"/>
<path d="M5712 100691 c-50 -33 -95 -69 -101 -80 -7 -12 -11 -89 -11 -192 l0
-173 98 -98 98 -98 98 0 c53 0 106 5 117 11 11 6 47 51 80 101 l59 90 0 174 0
174 23 0 c14 0 70 -39 150 -106 l127 -106 0 -69 c0 -61 3 -73 25 -94 13 -14
36 -25 50 -25 14 0 37 11 50 25 23 22 25 32 25 119 0 52 -3 102 -6 111 -6 15
-265 238 -324 278 -21 15 -54 17 -246 17 l-222 0 -90 -59z m288 -241 l0 -150
-32 -50 c-30 -46 -36 -50 -73 -50 -34 0 -46 7 -92 52 l-53 52 0 116 0 115 48
32 c42 29 54 32 125 32 l77 1 0 -150z"/>
<path d="M15048 100602 l-98 -98 0 -154 0 -154 98 -98 98 -98 154 0 154 0 98
98 98 98 0 177 0 177 75 0 75 0 0 -250 0 -251 25 -24 c13 -14 36 -25 50 -25
14 0 37 11 50 25 l25 24 0 301 0 301 -25 24 c-24 25 -27 25 -200 25 -240 0
-225 17 -225 -247 l0 -199 -53 -52 -53 -52 -95 0 -95 0 -52 53 -52 53 0 94 0
94 75 77 c84 86 92 113 50 154 -44 45 -69 35 -177 -73z"/>
<path d="M27525 100625 c-25 -24 -25 -25 -25 -225 l0 -200 -100 0 c-94 0 -103
-2 -125 -25 -14 -13 -25 -36 -25 -50 0 -14 11 -37 25 -50 22 -23 31 -25 125
-25 l100 0 0 -25 c0 -33 42 -75 75 -75 33 0 75 42 75 75 l0 25 250 0 251 0 24
25 c26 26 31 54 15 85 -9 16 -506 429 -570 473 -34 24 -67 21 -95 -8z m284
-339 l103 -86 -131 0 -131 0 0 106 0 105 28 -20 c15 -11 74 -58 131 -105z"/>
<path d="M26125 100475 c-25 -24 -25 -27 -25 -200 l0 -175 -100 0 c-94 0 -103
-2 -125 -25 -14 -13 -25 -36 -25 -50 0 -14 11 -37 25 -50 22 -23 31 -25 125
-25 l100 0 0 -50 c0 -41 5 -56 25 -75 13 -14 36 -25 50 -25 14 0 37 11 50 25
20 19 25 34 25 75 l0 50 250 0 251 0 24 25 c27 26 31 54 15 85 -8 15 -421 324
-559 417 -43 30 -76 29 -106 -2z m251 -290 l116 -85 -121 0 -121 0 0 85 c0 47
2 85 5 85 2 0 57 -38 121 -85z"/>
<path d="M4975 67675 l-25 -24 0 -246 c0 -156 4 -254 11 -266 6 -11 51 -47
101 -80 l90 -59 298 0 298 0 90 59 c50 33 95 69 101 80 7 12 11 110 11 266 l0
246 -25 24 c-13 14 -36 25 -50 25 -14 0 -37 -11 -50 -25 -20 -19 -25 -34 -25
-75 l0 -50 -350 0 -350 0 0 50 c0 41 -5 56 -25 75 -13 14 -36 25 -50 25 -14 0
-37 -11 -50 -25z m825 -367 l0 -93 -50 -32 -50 -33 -250 0 -250 0 -50 33 -50
32 0 93 0 92 350 0 350 0 0 -92z"/>
<path d="M6375 67675 l-25 -24 0 -301 0 -301 25 -24 c29 -30 64 -32 96 -6 24
19 24 23 29 239 l5 220 225 -156 c428 -294 470 -322 496 -322 14 0 36 11 49
25 l25 24 0 301 0 301 -25 24 c-29 30 -64 32 -96 6 -24 -19 -24 -23 -29 -239
l-5 -220 -225 156 c-428 294 -470 322 -496 322 -14 0 -36 -11 -49 -25z"/>
<path d="M14725 67675 l-25 -24 0 -246 c0 -156 4 -254 11 -266 6 -11 51 -47
101 -80 l90 -59 298 0 298 0 90 59 c50 33 95 69 101 80 7 12 11 110 11 266 l0
246 -25 24 c-13 14 -36 25 -50 25 -14 0 -37 -11 -50 -25 -20 -19 -25 -34 -25
-75 l0 -50 -350 0 -350 0 0 50 c0 41 -5 56 -25 75 -13 14 -36 25 -50 25 -14 0
-37 -11 -50 -25z m825 -367 l0 -93 -50 -32 -50 -33 -250 0 -250 0 -50 33 -50
32 0 93 0 92 350 0 350 0 0 -92z"/>
<path d="M16125 67675 l-25 -24 0 -301 0 -301 25 -24 c29 -30 64 -32 96 -6 24
19 24 23 29 239 l5 220 225 -156 c428 -294 470 -322 496 -322 14 0 36 11 49
25 l25 24 0 301 0 301 -25 24 c-29 30 -64 32 -96 6 -24 -19 -24 -23 -29 -239
l-5 -220 -225 156 c-428 294 -470 322 -496 322 -14 0 -36 -11 -49 -25z"/>
<path d="M25725 67425 l-25 -24 0 -246 c0 -156 4 -254 11 -266 6 -11 51 -47
101 -80 l90 -59 298 0 298 0 90 59 c50 33 95 69 101 80 7 12 11 110 11 266 l0
246 -25 24 c-13 14 -36 25 -50 25 -14 0 -37 -11 -50 -25 -20 -19 -25 -34 -25
-75 l0 -50 -350 0 -350 0 0 50 c0 41 -5 56 -25 75 -13 14 -36 25 -50 25 -14 0
-37 -11 -50 -25z m825 -367 l0 -93 -50 -32 -50 -33 -250 0 -250 0 -50 33 -50
32 0 93 0 92 350 0 350 0 0 -92z"/>
<path d="M27125 67425 l-25 -24 0 -301 0 -301 25 -24 c29 -30 64 -32 96 -6 24
19 24 23 29 239 l5 220 225 -156 c428 -294 470 -322 496 -322 14 0 36 11 49
25 l25 24 0 301 0 301 -25 24 c-29 30 -64 32 -96 6 -24 -19 -24 -23 -29 -239
l-5 -220 -225 156 c-428 294 -470 322 -496 322 -14 0 -36 -11 -49 -25z"/>
<path d="M5375 66825 l-25 -24 0 -301 0 -301 25 -24 c13 -14 36 -25 50 -25 14
0 37 11 50 25 l25 24 0 301 0 301 -25 24 c-13 14 -36 25 -50 25 -14 0 -37 -11
-50 -25z"/>
<path d="M6375 66825 c-25 -24 -25 -27 -25 -200 0 -173 0 -176 25 -200 13 -14
36 -25 50 -25 14 0 37 11 50 25 20 19 25 34 25 75 l0 50 375 0 376 0 24 25
c45 44 35 69 -73 177 -108 108 -133 118 -177 73 -30 -30 -32 -64 -4 -99 l20
-26 -270 0 -271 0 0 50 c0 41 -5 56 -25 75 -13 14 -36 25 -50 25 -14 0 -37
-11 -50 -25z"/>
<path d="M15125 66825 l-25 -24 0 -301 0 -301 25 -24 c13 -14 36 -25 50 -25
14 0 37 11 50 25 l25 24 0 301 0 301 -25 24 c-13 14 -36 25 -50 25 -14 0 -37
-11 -50 -25z"/>
<path d="M16125 66825 c-25 -24 -25 -27 -25 -200 0 -173 0 -176 25 -200 13
-14 36 -25 50 -25 14 0 37 11 50 25 20 19 25 34 25 75 l0 50 375 0 376 0 24
25 c14 13 25 35 25 49 0 38 -119 209 -153 221 -64 21 -115 -45 -84 -110 l17
-35 -290 0 -290 0 0 50 c0 41 -5 56 -25 75 -13 14 -36 25 -50 25 -14 0 -37
-11 -50 -25z"/>
<path d="M26125 66575 l-25 -24 0 -301 0 -301 25 -24 c13 -14 36 -25 50 -25
14 0 37 11 50 25 l25 24 0 301 0 301 -25 24 c-13 14 -36 25 -50 25 -14 0 -37
-11 -50 -25z"/>
<path d="M27125 66575 c-24 -23 -25 -28 -25 -175 0 -147 1 -152 25 -175 13
-14 36 -25 50 -25 33 0 75 42 75 75 l0 25 375 0 376 0 24 25 c45 44 35 69 -73
177 -108 108 -133 118 -177 73 -30 -30 -32 -64 -4 -99 l20 -26 -270 0 -271 0
0 50 c0 41 -5 56 -25 75 -13 14 -36 25 -50 25 -14 0 -37 -11 -50 -25z"/>
<path d="M6625 66275 c-25 -24 -25 -27 -25 -200 l0 -175 -100 0 c-94 0 -103
-2 -125 -25 -14 -13 -25 -36 -25 -50 0 -14 11 -37 25 -50 22 -23 31 -25 125
-25 l100 0 0 -50 c0 -41 5 -56 25 -75 13 -14 36 -25 50 -25 14 0 37 11 50 25
20 19 25 34 25 75 l0 50 250 0 251 0 24 25 c27 26 31 54 15 85 -8 15 -421 324
-559 417 -43 30 -76 29 -106 -2z m251 -290 l116 -85 -121 0 -121 0 0 85 c0 47
2 85 5 85 2 0 57 -38 121 -85z"/>
<path d="M16375 66275 c-25 -24 -25 -27 -25 -200 l0 -175 -100 0 c-94 0 -103
-2 -125 -25 -14 -13 -25 -36 -25 -50 0 -14 11 -37 25 -50 22 -23 31 -25 125
-25 l100 0 0 -50 c0 -41 5 -56 25 -75 13 -14 36 -25 50 -25 14 0 37 11 50 25
20 19 25 34 25 75 l0 50 250 0 251 0 24 25 c27 26 31 54 15 85 -8 15 -421 324
-559 417 -43 30 -76 29 -106 -2z m251 -290 l116 -85 -121 0 -121 0 0 85 c0 47
2 85 5 85 2 0 57 -38 121 -85z"/>
<path d="M27375 66025 c-25 -24 -25 -27 -25 -200 l0 -175 -100 0 c-94 0 -103
-2 -125 -25 -14 -13 -25 -36 -25 -50 0 -14 11 -37 25 -50 22 -23 31 -25 125
-25 l100 0 0 -50 c0 -41 5 -56 25 -75 13 -14 36 -25 50 -25 14 0 37 11 50 25
20 19 25 34 25 75 l0 50 250 0 251 0 24 25 c27 26 31 54 15 85 -8 15 -421 324
-559 417 -43 30 -76 29 -106 -2z m251 -290 l116 -85 -121 0 -121 0 0 85 c0 47
2 85 5 85 2 0 57 -38 121 -85z"/>
<path d="M5062 65941 c-50 -33 -95 -69 -101 -80 -6 -11 -11 -64 -11 -117 l0
-98 98 -98 98 -98 304 0 304 0 98 98 98 98 0 98 c0 53 -5 106 -11 117 -6 11
-51 47 -101 80 l-90 59 -298 0 -298 0 -90 -59z m688 -123 c46 -30 50 -36 50
-73 0 -34 -7 -46 -52 -92 l-52 -53 -245 0 -245 0 -53 52 c-47 46 -53 57 -53
93 0 37 4 43 48 72 l47 32 253 0 252 1 50 -32z"/>
<path d="M14812 65941 c-50 -33 -95 -69 -101 -80 -6 -11 -11 -64 -11 -117 l0
-98 98 -98 98 -98 304 0 304 0 98 98 98 98 0 98 c0 53 -5 106 -11 117 -6 11
-51 47 -101 80 l-90 59 -298 0 -298 0 -90 -59z m688 -123 c46 -30 50 -36 50
-73 0 -34 -7 -46 -52 -92 l-52 -53 -245 0 -245 0 -53 52 c-47 46 -53 57 -53
93 0 37 4 43 48 72 l47 32 253 0 252 1 50 -32z"/>
<path d="M25812 65691 c-50 -33 -95 -69 -101 -80 -6 -11 -11 -64 -11 -117 l0
-98 98 -98 98 -98 304 0 304 0 98 98 98 98 0 98 c0 53 -5 106 -11 117 -6 11
-51 47 -101 80 l-90 59 -298 0 -298 0 -90 -59z m688 -123 c46 -30 50 -36 50
-73 0 -34 -7 -46 -52 -92 l-52 -53 -245 0 -245 0 -53 52 c-47 46 -53 57 -53
93 0 37 4 43 48 72 l47 32 253 0 252 1 50 -32z"/>
<path d="M5448 65252 l-98 -98 0 -177 0 -177 -23 0 c-15 0 -55 33 -125 103
l-102 102 0 73 c0 64 -3 76 -25 97 -13 14 -36 25 -50 25 -14 0 -37 -11 -50
-25 -23 -22 -25 -31 -25 -127 l0 -102 148 -148 148 -148 251 0 251 0 90 59
c50 33 95 69 101 80 7 12 11 89 11 192 l0 173 -98 98 -98 98 -104 0 -104 0
-98 -98z m299 -104 l53 -52 0 -116 0 -115 -50 -32 c-48 -32 -54 -33 -150 -33
l-100 0 0 147 0 147 52 53 c48 48 56 53 97 53 41 0 50 -5 98 -52z"/>
<path d="M14798 65252 l-98 -98 0 -173 c0 -103 4 -180 11 -192 6 -11 51 -47
101 -80 l90 -59 99 0 100 0 41 39 42 38 59 -38 c59 -38 61 -39 157 -39 l98 0
90 59 c50 33 95 69 101 80 7 12 11 89 11 192 l0 173 -98 98 -98 98 -103 0
-102 0 -56 -52 -55 -53 -17 25 c-9 14 -28 37 -43 53 -25 26 -30 27 -129 27
l-103 0 -98 -98z m270 -102 c32 -49 32 -51 32 -172 0 -119 -1 -123 -27 -150
-39 -41 -106 -40 -173 5 l-50 32 0 115 0 114 52 53 c46 47 57 53 93 53 37 0
42 -4 73 -50z m429 -2 l53 -52 0 -116 0 -115 -50 -32 c-39 -26 -60 -33 -100
-33 -40 0 -61 7 -100 33 l-50 32 0 115 0 114 52 53 c48 48 56 53 97 53 41 0
50 -5 98 -52z"/>
<path d="M26575 65075 l-25 -24 0 -226 c0 -124 -3 -225 -6 -225 -4 0 -174 79
-378 175 -205 96 -382 175 -395 175 -29 0 -71 -43 -71 -72 0 -13 7 -33 14 -44
17 -24 880 -434 914 -434 13 0 34 11 47 25 l25 24 0 301 0 301 -25 24 c-13 14
-36 25 -50 25 -14 0 -37 -11 -50 -25z"/>
<path d="M6618 64621 l-277 -77 -236 -157 -235 -157 -158 -238 -158 -237 -53
-267 -53 -266 51 -282 c29 -156 57 -292 63 -304 6 -11 78 -121 160 -243 l148
-223 223 -148 c122 -82 232 -154 243 -160 12 -6 148 -34 304 -63 l282 -51 266
53 267 53 237 158 238 158 158 237 158 238 77 285 c43 157 77 291 77 298 0 7
-35 129 -77 270 l-77 257 -158 238 -158 237 -237 158 -238 158 -257 77 c-141
42 -267 77 -280 76 -13 -1 -148 -36 -300 -78z m552 -149 l225 -68 212 -142
213 -142 142 -213 142 -212 68 -225 c37 -124 68 -236 68 -250 -1 -14 -31 -135
-68 -270 l-68 -245 -142 -212 -142 -213 -213 -142 -212 -142 -234 -47 -235
-47 -262 48 -261 48 -212 141 -211 141 -141 212 -141 211 -29 161 c-16 89 -37
207 -46 264 l-17 103 43 227 43 227 144 217 144 218 212 142 213 142 240 67
c132 37 254 67 270 68 17 0 131 -30 255 -67z"/>
<path d="M7488 63865 c-37 -19 -72 -43 -77 -53 -5 -10 -24 -95 -41 -188 -17
-93 -33 -181 -36 -196 -5 -23 -1 -30 20 -38 27 -10 51 -53 42 -77 -3 -7 -16
-13 -29 -13 -27 0 -67 -38 -67 -64 0 -26 -10 -19 -81 60 -417 460 -449 494
-503 509 -191 54 -198 54 -330 5 -48 -19 -56 -25 -50 -42 4 -13 -2 -28 -19
-46 -13 -15 -109 -144 -212 -287 -104 -143 -203 -276 -222 -295 -41 -44 -42
-73 -4 -148 34 -67 48 -81 118 -116 67 -34 95 -32 168 7 50 27 83 59 200 195
l140 162 297 -297 c173 -173 298 -306 298 -316 0 -10 5 -27 10 -38 14 -25 217
-178 247 -185 35 -9 241 45 268 70 12 12 90 147 172 301 83 154 162 301 176
326 25 44 77 226 77 268 0 12 -25 84 -56 161 -47 117 -68 156 -135 244 -43 58
-88 110 -98 116 -11 5 -62 10 -113 10 -86 -1 -98 -4 -160 -35z m-960 -437 c-2
-18 -11 -24 -36 -26 -31 -3 -32 -2 -20 17 11 18 25 26 51 30 5 0 7 -9 5 -21z
m807 -368 c-3 -5 -12 -10 -18 -10 -7 0 -6 4 3 10 19 12 23 12 15 0z"/>
<path d="M16093 64621 l-253 -78 -235 -156 -235 -157 -158 -238 -158 -237 -53
-267 -53 -266 51 -282 c29 -156 57 -292 63 -304 6 -11 78 -121 160 -244 l149
-223 237 -157 237 -158 267 -53 266 -53 282 51 c156 29 292 57 304 63 11 6
121 78 243 160 l223 148 148 223 c82 122 154 232 160 243 6 12 34 148 63 304
l51 282 -53 266 -53 267 -158 237 -158 238 -237 158 -238 158 -285 77 c-157
43 -294 77 -305 76 -11 0 -134 -36 -272 -78z m557 -149 l245 -68 212 -142 213
-142 142 -213 142 -212 47 -234 47 -235 -48 -262 -48 -261 -141 -212 -141
-211 -211 -141 -212 -141 -261 -48 -262 -48 -235 47 -234 47 -212 142 -213
142 -141 211 -141 211 -19 107 c-10 58 -31 176 -47 261 l-28 156 46 234 46
235 142 212 142 213 213 142 212 142 220 67 c121 37 234 68 250 68 17 0 140
-30 275 -67z"/>
<path d="M16988 63865 c-37 -19 -72 -43 -77 -54 -6 -10 -27 -108 -47 -217 -30
-169 -34 -204 -25 -236 14 -44 8 -58 -42 -106 -29 -28 -38 -32 -55 -23 -11 6
-109 120 -218 253 -273 333 -246 309 -383 343 l-115 28 -113 -28 c-106 -25
-113 -28 -94 -42 28 -19 27 -33 -2 -33 -32 0 -42 -11 -267 -321 -199 -273
-200 -274 -200 -327 0 -38 8 -68 29 -110 34 -67 48 -81 118 -116 91 -45 85
-49 304 170 l195 195 195 -208 c108 -114 249 -266 315 -337 117 -127 301 -280
351 -292 27 -7 227 40 259 61 12 8 71 123 149 292 71 153 164 349 207 436 43
87 78 166 78 177 0 11 -25 82 -55 158 l-56 139 -118 116 -118 117 -74 0 c-64
-1 -83 -6 -141 -35z m-962 -431 c-3 -9 -6 -20 -6 -25 0 -5 -14 -9 -30 -9 -28
0 -29 2 -18 20 11 17 25 25 52 29 4 0 5 -6 2 -15z m809 -373 c-3 -6 -11 -11
-17 -11 -6 0 -6 6 2 15 14 17 26 13 15 -4z"/>
<path d="M26818 64371 l-277 -77 -236 -157 -235 -157 -158 -238 -158 -237 -53
-267 -53 -266 51 -282 c29 -156 57 -292 63 -304 6 -11 78 -121 160 -243 l148
-223 223 -148 c122 -82 232 -154 243 -160 12 -6 149 -35 305 -63 l283 -52 176
32 c96 17 226 41 289 53 l115 21 237 158 238 158 149 223 c82 123 154 233 160
244 6 12 34 148 63 304 l51 282 -53 266 -53 267 -158 237 -158 238 -237 158
-238 158 -285 77 c-157 43 -294 77 -305 76 -11 -1 -145 -36 -297 -78z m602
-155 l225 -62 212 -142 213 -142 142 -213 142 -212 47 -234 47 -235 -48 -262
-48 -261 -141 -212 -141 -211 -211 -141 -212 -141 -261 -48 -261 -48 -261 48
-261 48 -212 141 -211 141 -141 211 -140 211 -20 105 c-14 73 -29 118 -47 147
-26 40 -27 46 -30 209 -3 153 -2 171 17 210 12 23 34 105 49 182 l28 140 142
212 142 213 213 142 212 142 260 71 c223 62 265 70 295 62 19 -5 136 -37 260
-71z"/>
<path d="M27738 63615 c-37 -19 -72 -43 -77 -53 -5 -10 -24 -95 -41 -188 -17
-93 -33 -181 -36 -195 -5 -24 -2 -27 37 -32 49 -6 66 -21 75 -64 5 -26 1 -37
-19 -57 -21 -21 -36 -26 -78 -26 l-52 0 6 -44 c5 -34 3 -47 -12 -60 -23 -21
-42 -21 -34 2 3 10 -6 5 -21 -12 -20 -23 -36 -30 -63 -30 -41 0 -76 34 -71 69
2 14 -12 35 -43 65 -26 25 -49 55 -53 66 -10 32 10 73 40 84 l26 10 -38 43
c-22 23 -101 111 -177 194 -124 136 -144 154 -194 173 -121 45 -129 46 -254
15 -69 -17 -123 -36 -136 -48 -30 -27 -30 -73 -1 -104 l22 -24 -115 -117 c-99
-100 -123 -130 -162 -209 -26 -51 -47 -96 -47 -100 0 -4 39 31 86 77 l86 85
-83 -128 -82 -128 -29 28 -28 27 0 -42 c0 -39 6 -47 32 -43 4 0 17 -12 29 -28
12 -16 28 -27 35 -24 7 3 26 -2 42 -9 l29 -15 42 79 c54 100 97 120 153 71 15
-13 19 -11 43 29 41 66 145 168 172 168 22 0 28 -9 23 -40 -1 -9 9 -5 28 13
l29 28 37 -41 c20 -23 36 -49 34 -58 -2 -10 17 -37 43 -62 25 -25 49 -53 53
-64 3 -10 -1 -45 -10 -77 l-16 -59 33 -37 c18 -21 109 -121 203 -222 138 -148
188 -196 260 -243 l88 -58 148 0 c126 0 151 3 169 18 12 9 79 143 150 297
l130 280 -55 6 c-63 7 -80 19 -89 60 -14 61 48 107 99 74 26 -17 26 -17 26 8
0 19 6 26 22 29 33 5 32 25 -2 36 -38 14 -56 50 -43 89 12 35 45 53 101 53 52
0 52 1 16 148 l-27 107 -121 123 -122 122 -74 0 c-65 -1 -84 -5 -142 -35z
m-1128 -234 c0 -17 -18 -31 -41 -31 -13 0 -11 24 3 38 18 18 38 14 38 -7z
m210 -200 c-1 -3 -9 -22 -20 -41 l-19 -35 -1 47 c0 41 2 46 20 41 11 -3 20 -8
20 -12z m850 -281 c-1 -19 -49 -84 -67 -91 -22 -8 -23 -6 -23 44 l0 52 45 0
c25 0 45 -2 45 -5z"/>
<path d="M34775 50675 l-25 -24 0 -301 0 -301 25 -24 c13 -14 36 -25 50 -25
14 0 37 11 50 25 25 24 25 24 25 240 0 118 2 215 4 215 3 0 134 -84 293 -187
418 -271 454 -293 480 -293 13 0 35 11 48 25 l25 24 0 301 0 301 -25 24 c-13
14 -36 25 -50 25 -14 0 -37 -11 -50 -25 -25 -24 -25 -24 -25 -240 0 -118 -2
-215 -4 -215 -3 0 -134 84 -293 187 -418 271 -454 293 -480 293 -13 0 -35 -11
-48 -25z"/>
<path d="M33825 49875 l-25 -24 0 -301 0 -301 25 -24 c13 -14 36 -25 50 -25
14 0 37 11 50 25 l25 24 0 301 0 301 -25 24 c-13 14 -36 25 -50 25 -14 0 -37
-11 -50 -25z"/>
<path d="M34775 49875 c-25 -24 -25 -27 -25 -200 0 -173 0 -176 25 -200 13
-14 36 -25 50 -25 14 0 37 11 50 25 20 19 25 34 25 75 l0 50 400 0 401 0 24
25 c45 44 35 69 -73 177 -108 108 -133 118 -177 73 -30 -30 -32 -64 -4 -99
l20 -26 -295 0 -296 0 0 50 c0 41 -5 56 -25 75 -13 14 -36 25 -50 25 -14 0
-37 -11 -50 -25z"/>
<path d="M35075 49325 c-25 -24 -25 -25 -25 -225 l0 -200 -125 0 c-120 0 -127
-1 -150 -25 -14 -13 -25 -36 -25 -50 0 -14 11 -37 25 -50 23 -24 30 -25 150
-25 l125 0 0 -25 c0 -33 42 -75 75 -75 33 0 75 42 75 75 l0 25 250 0 251 0 24
25 c26 26 31 54 15 85 -9 16 -506 429 -570 473 -34 24 -67 21 -95 -8z m284
-339 l103 -86 -131 0 -131 0 0 106 0 105 28 -20 c15 -11 74 -58 131 -105z"/>
<path d="M33425 49025 l-25 -24 0 -301 0 -301 25 -24 c13 -14 36 -25 50 -25
14 0 37 11 50 25 l25 24 0 251 0 250 73 0 73 0 52 -53 52 -53 0 -124 0 -124
98 -98 98 -98 98 0 c53 0 106 5 117 11 11 6 47 51 80 101 l59 90 0 148 0 148
-59 90 c-78 118 -116 138 -166 87 -36 -35 -31 -63 25 -149 l50 -77 0 -99 c0
-96 -1 -102 -32 -150 -31 -46 -36 -50 -73 -50 -36 0 -47 6 -93 53 l-52 53 0
124 0 124 -98 98 -98 98 -153 0 c-148 0 -153 -1 -176 -25z"/>
<path d="M33498 48152 l-98 -98 0 -104 0 -104 98 -98 98 -98 298 0 c192 0 304
4 317 11 11 6 47 51 80 101 l59 90 0 98 0 98 -59 90 c-33 50 -69 95 -80 101
-13 7 -125 11 -317 11 l-298 0 -98 -98z m670 -102 c25 -39 32 -60 32 -100 0
-40 -7 -61 -32 -100 l-33 -50 -240 0 -239 0 -53 52 c-48 48 -53 56 -53 97 0
41 5 50 52 98 l52 53 241 0 240 0 33 -50z"/>
<path d="M26175 46925 l-25 -24 0 -224 0 -225 59 -90 c33 -50 69 -95 80 -101
13 -7 125 -11 317 -11 l298 0 98 98 98 98 0 228 0 227 -25 24 c-13 14 -36 25
-50 25 -14 0 -37 -11 -50 -25 -20 -19 -25 -34 -25 -75 l0 -50 -325 0 -325 0 0
50 c0 41 -5 56 -25 75 -13 14 -36 25 -50 25 -14 0 -37 -11 -50 -25z m775 -347
l0 -72 -52 -53 -52 -53 -241 0 -240 0 -32 50 c-30 45 -33 57 -33 125 l0 75
325 0 325 0 0 -72z"/>
<path d="M27525 46925 l-25 -24 0 -301 0 -301 25 -24 c13 -14 36 -25 50 -25
14 0 37 11 50 25 25 24 25 24 25 240 0 118 2 215 4 215 3 0 134 -84 293 -187
418 -271 454 -293 480 -293 13 0 35 11 48 25 l25 24 0 301 0 301 -25 24 c-13
14 -36 25 -50 25 -14 0 -37 -11 -50 -25 -25 -24 -25 -24 -25 -240 0 -118 -2
-215 -4 -215 -3 0 -134 84 -293 187 -418 271 -454 293 -480 293 -13 0 -35 -11
-48 -25z"/>
<path d="M26575 46075 l-25 -24 0 -301 0 -301 25 -24 c13 -14 36 -25 50 -25
14 0 37 11 50 25 l25 24 0 301 0 301 -25 24 c-13 14 -36 25 -50 25 -14 0 -37
-11 -50 -25z"/>
<path d="M27525 46075 c-24 -23 -25 -28 -25 -175 0 -147 1 -152 25 -175 13
-14 36 -25 50 -25 14 0 37 11 50 25 20 19 25 34 25 75 l0 50 400 0 401 0 24
25 c27 26 31 54 14 86 -15 29 -186 139 -216 139 -31 0 -73 -42 -73 -75 l0 -25
-275 0 -275 0 0 25 c0 33 -42 75 -75 75 -14 0 -37 -11 -50 -25z"/>
<path d="M27825 45525 c-25 -24 -25 -27 -25 -200 l0 -175 -125 0 c-120 0 -127
-1 -150 -25 -14 -13 -25 -36 -25 -50 0 -14 11 -37 25 -50 23 -24 30 -25 150
-25 l125 0 0 -50 c0 -41 5 -56 25 -75 13 -14 36 -25 50 -25 14 0 37 11 50 25
20 19 25 34 25 75 l0 50 250 0 251 0 24 25 c27 26 31 54 15 85 -8 15 -421 324
-559 417 -43 30 -76 29 -106 -2z m251 -290 l116 -85 -121 0 -121 0 0 85 c0 47
2 85 5 85 2 0 57 -38 121 -85z"/>
<path d="M26175 45275 c-25 -24 -25 -27 -25 -200 0 -173 0 -176 25 -200 13
-14 36 -25 50 -25 14 0 37 11 50 25 20 19 25 34 25 75 l0 50 375 0 376 0 24
25 c45 44 35 69 -73 177 -108 108 -133 118 -177 73 -30 -30 -32 -64 -4 -99
l20 -26 -270 0 -271 0 0 50 c0 41 -5 56 -25 75 -13 14 -36 25 -50 25 -14 0
-37 -11 -50 -25z"/>
<path d="M26287 44739 c-10 -6 -45 -51 -78 -101 l-59 -90 0 -98 0 -98 59 -90
c33 -50 69 -95 80 -101 13 -7 125 -11 317 -11 l298 0 98 98 98 98 0 104 0 104
-98 98 -98 98 -300 0 c-193 -1 -306 -4 -317 -11z m610 -191 c48 -48 53 -56 53
-97 0 -41 -5 -50 -52 -98 l-52 -53 -241 0 -240 0 -32 50 c-26 39 -33 60 -33
100 0 40 7 61 33 100 l32 50 240 0 239 0 53 -52z"/>
<path d="M23925 35825 l-25 -24 0 -227 0 -228 98 -98 98 -98 298 0 c192 0 304
4 317 11 11 6 47 51 80 101 l59 90 0 225 0 224 -25 24 c-13 14 -36 25 -50 25
-33 0 -75 -42 -75 -75 l0 -25 -325 0 -325 0 0 25 c0 33 -42 75 -75 75 -14 0
-37 -11 -50 -25z m775 -325 c0 -96 -1 -102 -32 -150 l-33 -50 -240 0 -239 0
-53 52 -53 52 0 98 0 98 325 0 325 0 0 -100z"/>
<path d="M25275 35825 l-25 -24 0 -301 0 -301 25 -24 c13 -14 36 -25 50 -25
14 0 37 11 50 25 25 24 25 24 25 240 0 118 2 215 4 215 3 0 134 -84 293 -187
418 -271 454 -293 480 -293 13 0 35 11 48 25 l25 24 0 301 0 301 -25 24 c-13
14 -36 25 -50 25 -14 0 -37 -11 -50 -25 -25 -24 -25 -24 -25 -240 0 -118 -2
-215 -4 -215 -3 0 -134 84 -293 187 -418 271 -454 293 -480 293 -13 0 -35 -11
-48 -25z"/>
<path d="M24325 35025 l-25 -24 0 -301 0 -301 25 -24 c13 -14 36 -25 50 -25
14 0 37 11 50 25 l25 24 0 301 0 301 -25 24 c-13 14 -36 25 -50 25 -14 0 -37
-11 -50 -25z"/>
<path d="M25275 35025 c-25 -24 -25 -27 -25 -200 0 -173 0 -176 25 -200 13
-14 36 -25 50 -25 14 0 37 11 50 25 20 19 25 34 25 75 l0 50 400 0 401 0 24
25 c45 44 35 69 -73 177 -108 108 -133 118 -177 73 -30 -30 -32 -64 -4 -99
l20 -26 -295 0 -296 0 0 50 c0 41 -5 56 -25 75 -13 14 -36 25 -50 25 -14 0
-37 -11 -50 -25z"/>
<path d="M25575 34475 c-25 -24 -25 -25 -25 -225 l0 -200 -125 0 c-120 0 -127
-1 -150 -25 -14 -13 -25 -36 -25 -50 0 -14 11 -37 25 -50 23 -24 30 -25 150
-25 l125 0 0 -25 c0 -33 42 -75 75 -75 33 0 75 42 75 75 l0 25 250 0 251 0 24
25 c26 26 31 54 15 85 -9 16 -506 429 -570 473 -34 24 -67 21 -95 -8z m284
-339 l103 -86 -131 0 -131 0 0 106 0 105 28 -20 c15 -11 74 -58 131 -105z"/>
<path d="M13575 34325 c-31 -30 -32 -69 -2 -98 15 -15 402 -161 1190 -447
l1168 -425 -1271 -5 -1272 -5 -19 -24 c-18 -23 -19 -54 -19 -1071 0 -1017 1
-1048 19 -1071 l19 -24 1272 -5 1271 -5 -1168 -425 c-788 -286 -1175 -432
-1190 -447 -30 -29 -29 -68 2 -98 l24 -25 2801 0 2801 0 24 25 c31 30 32 69 3
98 -16 16 -399 157 -1213 447 l-1189 425 1293 5 1293 5 19 24 c18 23 19 54 19
1071 0 1017 -1 1048 -19 1071 l-19 24 -1293 5 -1293 5 1189 425 c814 290 1197
431 1213 447 29 29 28 68 -3 98 l-24 25 -2801 0 -2801 0 -24 -25z m5144 -129
c-14 -14 -2338 -836 -2354 -833 -22 4 -2287 827 -2294 833 -2 2 1043 4 2324 4
1281 0 2326 -2 2324 -4z m581 -1946 l0 -950 -2900 0 -2900 0 0 950 0 950 2900
0 2900 0 0 -950z m-1745 -1527 l1169 -418 -1161 -3 c-639 -1 -1686 -1 -2328 0
l-1166 3 1143 417 c629 229 1150 417 1158 417 8 1 541 -187 1185 -416z"/>
<path d="M23925 34175 c-24 -23 -25 -28 -25 -175 0 -147 1 -152 25 -175 13
-14 36 -25 50 -25 33 0 75 42 75 75 l0 25 375 0 376 0 24 25 c14 13 25 35 25
49 0 38 -119 209 -153 221 -64 21 -115 -45 -84 -110 l17 -35 -290 0 -290 0 0
50 c0 41 -5 56 -25 75 -13 14 -36 25 -50 25 -14 0 -37 -11 -50 -25z"/>
<path d="M23998 33552 l-98 -98 0 -154 0 -154 98 -98 98 -98 78 0 78 0 62 59
61 60 62 -60 61 -59 97 0 c53 0 105 5 116 11 11 6 47 51 80 101 l59 90 0 148
0 148 -59 90 c-78 118 -116 138 -166 87 -36 -35 -31 -63 25 -149 l50 -77 0
-99 c0 -96 -1 -102 -32 -150 -31 -46 -36 -50 -73 -50 -36 0 -47 6 -93 53 -48
49 -52 56 -52 100 0 38 -5 53 -25 72 -53 54 -125 13 -125 -72 0 -45 -4 -52
-53 -101 -29 -29 -62 -52 -73 -52 -11 0 -43 24 -72 53 l-52 53 0 94 0 94 75
77 c84 86 92 113 50 154 -44 45 -69 35 -177 -73z"/>
<path d="M25985 33619 c-82 -15 -204 -38 -269 -50 l-119 -22 -239 -158 -238
-159 -158 -238 -158 -237 -53 -267 -53 -266 51 -282 c29 -156 57 -292 63 -304
6 -11 78 -121 160 -243 l148 -223 223 -148 c122 -82 232 -154 243 -160 12 -6
148 -34 304 -63 l282 -51 266 53 267 53 237 158 237 157 149 223 c82 123 154
233 160 244 6 12 34 148 63 304 l51 282 -53 266 -53 267 -158 237 -158 238
-237 158 -238 158 -260 52 c-143 29 -271 52 -285 51 -14 -1 -92 -14 -175 -30z
m445 -172 l215 -43 212 -142 213 -142 142 -213 142 -212 47 -234 47 -235 -48
-262 -48 -261 -141 -212 -141 -211 -213 -142 -212 -142 -234 -47 -235 -47
-262 48 -261 48 -212 141 -211 141 -141 211 -141 212 -39 216 c-58 315 -57
293 -9 546 l42 220 144 217 144 218 211 141 212 141 256 48 c141 26 267 46
281 44 14 -2 122 -24 240 -47z"/>
<path d="M26738 32865 c-37 -19 -72 -43 -77 -53 -5 -10 -24 -95 -41 -188 -17
-93 -33 -181 -36 -196 -5 -23 -1 -30 20 -38 27 -10 51 -53 42 -77 -3 -7 -16
-13 -29 -13 -27 0 -67 -38 -67 -63 0 -9 -3 -17 -8 -17 -4 0 -122 115 -262 256
l-255 256 -117 59 c-65 32 -125 59 -133 59 -19 0 -179 -79 -183 -91 -2 -5 -14
-9 -26 -9 -12 0 -32 -10 -43 -22 -29 -31 -358 -549 -394 -620 -16 -32 -29 -70
-29 -86 0 -55 155 -172 227 -172 15 0 55 15 88 33 49 26 83 59 193 187 74 85
137 156 141 158 4 1 52 -51 108 -115 56 -65 110 -127 120 -138 10 -11 105
-120 210 -241 106 -122 200 -224 208 -228 9 -3 29 -6 43 -6 16 0 51 -19 87
-46 33 -24 70 -47 82 -50 35 -9 241 45 268 70 12 12 90 147 172 301 83 154
162 300 175 325 24 43 78 230 78 270 0 11 -25 82 -55 159 l-56 138 -92 90
c-86 84 -98 92 -172 117 -44 14 -89 26 -100 26 -11 -1 -50 -16 -87 -35z m-148
-805 c0 -5 -8 -10 -17 -10 -15 0 -16 2 -3 10 19 12 20 12 20 0z"/>
<path d="M5594 28297 c-138 -29 -257 -57 -265 -63 -8 -6 -115 -89 -238 -184
l-224 -174 -156 -235 -157 -236 -53 -267 -53 -266 51 -282 c29 -156 57 -292
63 -304 6 -11 78 -121 160 -244 l149 -223 237 -157 237 -158 267 -53 266 -53
282 51 c156 29 292 57 304 63 11 6 121 78 243 160 l223 148 148 223 c82 122
154 232 160 243 6 12 34 148 63 304 l51 282 -53 266 -53 267 -157 236 -156
235 -219 170 c-121 94 -230 178 -244 187 -24 15 -554 118 -602 116 -12 0 -136
-24 -274 -52z m541 -147 c127 -22 242 -46 257 -53 14 -6 116 -82 225 -167
l200 -155 143 -215 144 -215 47 -234 47 -235 -48 -262 -48 -261 -141 -212
-141 -211 -211 -141 -212 -141 -261 -48 -262 -48 -235 47 -234 47 -212 142
-213 142 -140 210 c-112 167 -142 221 -151 262 -6 29 -17 68 -25 85 -8 18 -14
39 -12 47 2 7 -8 22 -20 33 -19 15 -25 31 -28 77 -3 44 -9 62 -26 76 -29 23
-29 76 0 117 17 24 22 45 22 90 0 38 7 70 19 94 11 20 31 98 46 175 l27 139
146 220 145 220 213 165 213 165 228 47 c125 25 237 45 248 43 11 -2 124 -22
250 -45z"/>
<path d="M6488 27515 c-37 -19 -72 -43 -77 -53 -5 -10 -24 -95 -41 -188 -17
-93 -33 -181 -36 -195 -5 -24 -2 -27 37 -32 53 -7 73 -27 73 -72 0 -49 -23
-67 -88 -73 -54 -4 -56 -6 -56 -33 0 -15 5 -31 10 -34 6 -3 10 -17 10 -31 0
-22 -4 -24 -50 -24 -37 0 -50 -4 -50 -15 0 -11 -6 -12 -22 -6 -28 10 -50 49
-43 77 4 17 0 20 -29 20 -49 0 -120 71 -120 119 0 41 16 62 54 70 29 6 29 7
-127 197 -104 127 -167 195 -187 203 -17 7 -74 23 -127 35 l-96 23 -114 -28
c-69 -17 -123 -36 -136 -48 -30 -26 -30 -73 -1 -104 l21 -23 -64 -67 c-53 -55
-79 -95 -137 -212 -40 -79 -72 -145 -72 -148 0 -2 6 -1 13 4 11 6 -2 -16 -40
-72 -13 -19 -13 -19 -13 5 l0 24 -30 -29 c-37 -35 -38 -53 -5 -61 14 -3 32
-16 40 -27 8 -11 25 -21 37 -22 13 -1 33 -4 45 -8 19 -7 26 1 63 68 23 41 51
80 62 86 23 12 66 4 90 -18 15 -13 19 -11 44 29 47 73 95 118 126 118 23 0 28
4 28 25 0 18 5 25 20 25 20 0 24 -10 20 -40 -1 -9 9 -5 28 13 l29 28 37 -41
c20 -23 36 -49 34 -58 -4 -24 51 -75 84 -77 78 -7 84 -63 19 -169 l-21 -33
199 -214 199 -214 121 -60 120 -59 71 17 c64 15 74 15 93 2 28 -20 60 -19 86
3 12 9 79 143 150 297 l130 280 -37 10 c-42 12 -66 50 -56 89 9 37 28 50 53
36 19 -9 21 -8 21 15 0 20 5 25 25 25 15 0 25 6 25 14 0 18 -27 29 -36 14 -4
-6 -15 8 -26 31 -37 81 0 121 115 121 86 0 86 3 8 158 -55 110 -66 124 -174
230 l-114 112 -74 0 c-64 -1 -83 -6 -141 -35z m-1118 -235 c0 -11 -3 -20 -7
-20 -5 0 -19 -3 -32 -7 -23 -6 -23 -6 -6 21 20 31 45 34 45 6z m179 -242 c-17
-34 -19 -34 -19 -5 0 18 5 27 15 27 13 0 14 -4 4 -22z m-409 -8 c-6 -11 -13
-20 -16 -20 -2 0 0 9 6 20 6 11 13 20 16 20 2 0 0 -9 -6 -20z m1244 -251 c-24
-27 -54 -25 -54 4 0 20 4 23 36 19 34 -4 34 -5 18 -23z"/>
<path d="M15075 28300 c-143 -27 -272 -55 -287 -64 -15 -8 -127 -92 -249 -187
l-222 -173 -156 -235 -157 -236 -53 -267 -53 -266 51 -282 c29 -156 57 -292
63 -304 6 -11 78 -121 160 -243 l148 -223 223 -148 c122 -82 232 -154 243
-160 12 -6 149 -35 305 -63 l283 -52 176 32 c96 17 226 41 289 53 l115 21 237
158 238 158 149 223 c82 123 154 233 160 244 6 12 34 148 63 304 l51 282 -53
266 -53 267 -157 236 -156 235 -219 170 c-121 94 -230 178 -244 187 -26 16
-556 118 -607 116 -15 -1 -145 -23 -288 -49z m560 -150 c127 -22 242 -46 257
-53 14 -6 116 -82 225 -167 l200 -155 143 -215 144 -215 47 -234 47 -235 -48
-262 -48 -261 -141 -212 -141 -211 -211 -141 -212 -141 -261 -48 -261 -48
-261 48 -261 48 -212 141 -211 141 -141 211 -141 212 -33 176 c-18 97 -39 188
-47 202 -20 38 -17 266 5 300 8 13 28 87 42 164 l27 140 146 220 145 220 200
155 c110 85 207 159 216 165 22 13 511 104 536 100 11 -2 124 -22 250 -45z"/>
<path d="M15988 27515 c-37 -19 -72 -43 -77 -53 -5 -10 -24 -95 -41 -188 -17
-93 -33 -181 -36 -195 -5 -24 -2 -27 37 -32 53 -7 73 -27 73 -72 0 -49 -23
-67 -88 -73 -53 -4 -56 -6 -56 -31 0 -15 5 -32 10 -37 7 -7 2 -18 -15 -34 -22
-20 -28 -22 -35 -10 -7 12 -13 10 -30 -10 -15 -17 -31 -24 -56 -24 -41 0 -65
21 -68 62 -2 20 -17 43 -48 73 -25 24 -48 54 -52 65 -10 32 10 73 40 84 l26
10 -38 43 c-22 23 -101 111 -177 194 -124 136 -144 154 -194 173 -121 45 -129
46 -254 15 -69 -17 -123 -36 -136 -48 -30 -27 -30 -73 -1 -104 l22 -24 -111
-112 -112 -112 -21 -85 c-11 -47 -23 -93 -27 -104 -4 -14 -2 -16 8 -10 9 5 8
-1 -3 -19 -10 -15 -25 -38 -34 -52 l-17 -26 -28 27 -29 28 0 -42 c0 -39 6 -47
32 -43 4 0 16 -11 28 -26 12 -15 32 -27 48 -28 15 -1 34 -5 43 -9 13 -6 26 9
59 69 53 97 97 116 152 68 15 -13 19 -11 43 29 15 23 55 71 88 106 46 47 68
62 89 62 26 0 28 3 28 39 0 34 3 38 20 34 11 -3 20 -7 20 -9 0 -12 -35 -74
-42 -74 -4 0 -8 -10 -8 -22 0 -21 1 -21 28 6 l29 27 36 -41 c21 -22 37 -49 37
-60 0 -11 20 -39 44 -63 56 -54 61 -73 37 -138 l-20 -52 36 -41 c20 -23 114
-124 209 -226 l172 -185 121 -60 120 -59 71 17 c64 15 74 15 93 2 28 -20 60
-19 86 3 12 9 79 143 150 297 l130 280 -37 10 c-42 12 -66 50 -56 89 9 37 28
50 53 36 19 -9 21 -8 21 15 0 20 5 25 25 25 35 0 32 26 -5 39 -56 19 -62 101
-9 128 13 7 43 13 67 13 52 0 52 1 16 148 l-27 107 -121 123 -122 122 -74 0
c-65 -1 -84 -5 -142 -35z m-1128 -235 c0 -11 -6 -21 -12 -22 -43 -5 -68 -2
-68 7 0 19 23 35 52 35 21 0 28 -5 28 -20z m1025 -500 c-9 -10 -25 -20 -36
-23 -15 -4 -19 0 -19 22 0 25 3 27 36 23 33 -4 34 -5 19 -22z"/>
<path d="M3825 25025 l-25 -24 0 -246 c0 -156 4 -254 11 -266 6 -11 51 -47
101 -80 l90 -59 298 0 298 0 90 59 c50 33 95 69 101 80 7 12 11 110 11 266 l0
246 -25 24 c-13 14 -36 25 -50 25 -14 0 -37 -11 -50 -25 -20 -19 -25 -34 -25
-75 l0 -50 -350 0 -350 0 0 50 c0 41 -5 56 -25 75 -13 14 -36 25 -50 25 -14 0
-37 -11 -50 -25z m825 -367 l0 -93 -50 -32 -50 -33 -250 0 -250 0 -50 33 -50
32 0 93 0 92 350 0 350 0 0 -92z"/>
<path d="M13825 25025 l-25 -24 0 -252 0 -253 73 -73 73 -73 301 0 301 0 90
59 c50 33 95 69 101 80 7 12 11 110 11 266 l0 246 -25 24 c-13 14 -36 25 -50
25 -14 0 -37 -11 -50 -25 -20 -19 -25 -34 -25 -75 l0 -50 -325 0 -325 0 0 50
c0 41 -5 56 -25 75 -13 14 -36 25 -50 25 -14 0 -37 -11 -50 -25z m775 -367 l0
-93 -50 -32 -50 -33 -247 0 -247 0 -28 27 c-27 26 -28 30 -28 125 l0 98 325 0
325 0 0 -92z"/>
<path d="M4225 24175 l-25 -24 0 -301 0 -301 25 -24 c13 -14 36 -25 50 -25 14
0 37 11 50 25 l25 24 0 301 0 301 -25 24 c-13 14 -36 25 -50 25 -14 0 -37 -11
-50 -25z"/>
<path d="M5225 24175 l-25 -24 0 -301 0 -301 25 -24 c29 -30 64 -32 96 -6 24
19 24 23 29 239 l5 220 225 -156 c428 -294 470 -322 496 -322 14 0 36 11 49
25 l25 24 0 301 0 301 -25 24 c-29 30 -64 32 -96 6 -24 -19 -24 -23 -29 -239
l-5 -220 -225 156 c-428 294 -470 322 -496 322 -14 0 -36 -11 -49 -25z"/>
<path d="M14225 24175 l-25 -24 0 -301 0 -301 25 -24 c13 -14 36 -25 50 -25
14 0 37 11 50 25 l25 24 0 301 0 301 -25 24 c-13 14 -36 25 -50 25 -14 0 -37
-11 -50 -25z"/>
<path d="M15175 24175 l-25 -24 0 -301 0 -301 25 -24 c13 -14 36 -25 50 -25
14 0 37 11 50 25 25 24 25 24 25 240 0 118 2 215 4 215 3 0 134 -84 293 -187
418 -271 454 -293 480 -293 13 0 35 11 48 25 l25 24 0 301 0 301 -25 24 c-13
14 -36 25 -50 25 -14 0 -37 -11 -50 -25 -25 -24 -25 -24 -25 -240 0 -118 -2
-215 -4 -215 -3 0 -134 84 -293 187 -418 271 -454 293 -480 293 -13 0 -35 -11
-48 -25z"/>
<path d="M3825 23375 c-25 -24 -25 -27 -25 -200 0 -173 0 -176 25 -200 13 -14
36 -25 50 -25 14 0 37 11 50 25 20 19 25 34 25 75 l0 50 400 0 401 0 24 25
c45 44 35 69 -73 177 -108 108 -133 118 -177 73 -30 -30 -32 -64 -4 -99 l20
-26 -295 0 -296 0 0 50 c0 41 -5 56 -25 75 -13 14 -36 25 -50 25 -14 0 -37
-11 -50 -25z"/>
<path d="M5225 23375 c-25 -24 -25 -27 -25 -200 0 -173 0 -176 25 -200 13 -14
36 -25 50 -25 14 0 37 11 50 25 20 19 25 34 25 75 l0 50 375 0 376 0 24 25
c14 13 25 35 25 49 0 38 -119 209 -153 221 -64 21 -115 -45 -84 -110 l17 -35
-290 0 -290 0 0 50 c0 41 -5 56 -25 75 -13 14 -36 25 -50 25 -14 0 -37 -11
-50 -25z"/>
<path d="M13825 23375 c-25 -24 -25 -27 -25 -200 0 -173 0 -176 25 -200 13
-14 36 -25 50 -25 14 0 37 11 50 25 20 19 25 34 25 75 l0 50 375 0 376 0 24
25 c45 44 35 69 -73 177 -108 108 -133 118 -177 73 -30 -30 -32 -64 -4 -99
l20 -26 -270 0 -271 0 0 50 c0 41 -5 56 -25 75 -13 14 -36 25 -50 25 -14 0
-37 -11 -50 -25z"/>
<path d="M15175 23375 c-25 -24 -25 -27 -25 -200 0 -173 0 -176 25 -200 13
-14 36 -25 50 -25 14 0 37 11 50 25 20 19 25 34 25 75 l0 50 400 0 401 0 24
25 c45 44 35 69 -73 177 -108 108 -133 118 -177 73 -30 -30 -32 -64 -4 -99
l20 -26 -295 0 -296 0 0 50 c0 41 -5 56 -25 75 -13 14 -36 25 -50 25 -14 0
-37 -11 -50 -25z"/>
<path d="M3825 22775 c-24 -23 -25 -28 -25 -175 0 -147 1 -152 25 -175 13 -14
36 -25 50 -25 14 0 37 11 50 25 20 19 25 34 25 75 l0 50 400 0 401 0 24 25
c27 26 31 54 14 86 -15 29 -186 139 -216 139 -31 0 -73 -42 -73 -75 l0 -25
-275 0 -275 0 0 25 c0 33 -42 75 -75 75 -14 0 -37 -11 -50 -25z"/>
<path d="M5475 22775 c-25 -24 -25 -27 -25 -200 l0 -175 -100 0 c-94 0 -103
-2 -125 -25 -14 -13 -25 -36 -25 -50 0 -14 11 -37 25 -50 22 -23 31 -25 125
-25 l100 0 0 -50 c0 -41 5 -56 25 -75 13 -14 36 -25 50 -25 14 0 37 11 50 25
20 19 25 34 25 75 l0 50 250 0 251 0 24 25 c27 26 31 54 15 85 -8 15 -421 324
-559 417 -43 30 -76 29 -106 -2z m251 -290 l116 -85 -121 0 -121 0 0 85 c0 47
2 85 5 85 2 0 57 -38 121 -85z"/>
<path d="M13825 22775 l-25 -24 0 -301 0 -301 25 -24 c13 -14 36 -25 50 -25
14 0 37 11 50 25 l25 24 0 251 0 250 75 0 c68 0 80 -3 125 -32 l50 -33 0 -144
0 -145 98 -98 98 -98 79 0 79 0 98 98 98 98 0 173 c0 103 -4 180 -11 192 -15
29 -186 139 -216 139 -30 0 -73 -42 -73 -72 0 -35 22 -61 90 -104 l60 -39 0
-115 0 -116 -53 -52 c-29 -29 -62 -52 -73 -52 -11 0 -43 24 -72 53 l-52 53 0
142 c0 83 -5 152 -11 163 -6 11 -51 47 -101 80 l-90 59 -150 0 c-145 0 -150
-1 -173 -25z"/>
<path d="M15475 22775 c-25 -24 -25 -27 -25 -200 l0 -175 -125 0 c-120 0 -127
-1 -150 -25 -14 -13 -25 -36 -25 -50 0 -14 11 -37 25 -50 23 -24 30 -25 150
-25 l125 0 0 -50 c0 -41 5 -56 25 -75 13 -14 36 -25 50 -25 14 0 37 11 50 25
20 19 25 34 25 75 l0 50 250 0 251 0 24 25 c27 26 31 54 15 85 -8 15 -421 324
-559 417 -43 30 -76 29 -106 -2z m251 -290 l116 -85 -121 0 -121 0 0 85 c0 47
2 85 5 85 2 0 57 -38 121 -85z"/>
<path d="M51325 14875 l-25 -24 0 -227 0 -228 98 -98 98 -98 304 0 304 0 98
98 98 98 0 228 0 227 -25 24 c-13 14 -36 25 -50 25 -14 0 -37 -11 -50 -25 -20
-19 -25 -34 -25 -75 l0 -50 -350 0 -350 0 0 50 c0 41 -5 56 -25 75 -13 14 -36
25 -50 25 -14 0 -37 -11 -50 -25z m825 -347 l0 -72 -52 -53 -52 -53 -245 0
-245 0 -53 52 -53 52 0 73 0 73 350 0 350 0 0 -72z"/>
<path d="M52725 14875 l-25 -24 0 -301 0 -301 25 -24 c13 -14 36 -25 50 -25
14 0 37 11 50 25 25 24 25 24 25 240 0 118 2 215 4 215 3 0 134 -84 293 -187
418 -271 454 -293 480 -293 13 0 35 11 48 25 l25 24 0 301 0 301 -25 24 c-13
14 -36 25 -50 25 -14 0 -37 -11 -50 -25 -25 -24 -25 -24 -25 -240 0 -118 -2
-215 -4 -215 -3 0 -134 84 -293 187 -418 271 -454 293 -480 293 -13 0 -35 -11
-48 -25z"/>
<path d="M14275 14675 l-25 -24 0 -224 0 -225 59 -90 c33 -50 69 -95 80 -101
13 -7 125 -11 317 -11 l298 0 98 98 98 98 0 228 0 227 -25 24 c-13 14 -36 25
-50 25 -14 0 -37 -11 -50 -25 -20 -19 -25 -34 -25 -75 l0 -50 -325 0 -325 0 0
50 c0 41 -5 56 -25 75 -13 14 -36 25 -50 25 -14 0 -37 -11 -50 -25z m775 -347
l0 -72 -52 -53 -52 -53 -241 0 -240 0 -32 50 c-30 45 -33 57 -33 125 l0 75
325 0 325 0 0 -72z"/>
<path d="M15625 14675 l-25 -24 0 -301 0 -301 25 -24 c13 -14 36 -25 50 -25
14 0 37 11 50 25 25 24 25 24 25 240 0 118 2 215 4 215 3 0 134 -84 293 -187
418 -271 454 -293 480 -293 13 0 35 11 48 25 l25 24 0 301 0 301 -25 24 c-13
14 -36 25 -50 25 -14 0 -37 -11 -50 -25 -25 -24 -25 -24 -25 -240 0 -118 -2
-215 -4 -215 -3 0 -134 84 -293 187 -418 271 -454 293 -480 293 -13 0 -35 -11
-48 -25z"/>
<path d="M51775 14025 l-25 -24 0 -301 0 -301 25 -24 c13 -14 36 -25 50 -25
14 0 37 11 50 25 l25 24 0 301 0 301 -25 24 c-13 14 -36 25 -50 25 -14 0 -37
-11 -50 -25z"/>
<path d="M52725 14025 c-24 -23 -25 -28 -25 -175 0 -147 1 -152 25 -175 13
-14 36 -25 50 -25 33 0 75 42 75 75 l0 25 400 0 401 0 24 25 c45 44 35 69 -73
177 -108 108 -133 118 -177 73 -30 -30 -32 -64 -4 -99 l20 -26 -295 0 -296 0
0 50 c0 41 -5 56 -25 75 -13 14 -36 25 -50 25 -14 0 -37 -11 -50 -25z"/>
<path d="M14675 13825 l-25 -24 0 -301 0 -301 25 -24 c13 -14 36 -25 50 -25
14 0 37 11 50 25 l25 24 0 301 0 301 -25 24 c-13 14 -36 25 -50 25 -14 0 -37
-11 -50 -25z"/>
<path d="M15625 13825 c-24 -23 -25 -28 -25 -175 0 -147 1 -152 25 -175 13
-14 36 -25 50 -25 14 0 37 11 50 25 20 19 25 34 25 75 l0 50 400 0 401 0 24
25 c27 26 31 54 14 86 -15 29 -186 139 -216 139 -31 0 -73 -42 -73 -75 l0 -25
-275 0 -275 0 0 25 c0 33 -42 75 -75 75 -14 0 -37 -11 -50 -25z"/>
<path d="M53025 13475 c-25 -24 -25 -27 -25 -200 l0 -175 -125 0 c-120 0 -127
-1 -150 -25 -14 -13 -25 -36 -25 -50 0 -14 11 -37 25 -50 23 -24 30 -25 150
-25 l125 0 0 -50 c0 -41 5 -56 25 -75 13 -14 36 -25 50 -25 14 0 37 11 50 25
20 19 25 34 25 75 l0 50 250 0 251 0 24 25 c27 26 31 54 15 85 -8 15 -421 324
-559 417 -43 30 -76 29 -106 -2z m251 -290 l116 -85 -121 0 -121 0 0 85 c0 47
2 85 5 85 2 0 57 -38 121 -85z"/>
<path d="M15925 13275 c-25 -24 -25 -27 -25 -200 l0 -175 -125 0 c-120 0 -127
-1 -150 -25 -14 -13 -25 -36 -25 -50 0 -14 11 -37 25 -50 23 -24 30 -25 150
-25 l125 0 0 -50 c0 -41 5 -56 25 -75 13 -14 36 -25 50 -25 14 0 37 11 50 25
20 19 25 34 25 75 l0 50 250 0 251 0 24 25 c27 26 31 54 15 85 -8 15 -421 324
-559 417 -43 30 -76 29 -106 -2z m251 -290 l116 -85 -121 0 -121 0 0 85 c0 47
2 85 5 85 2 0 57 -38 121 -85z"/>
<path d="M51325 13225 c-25 -24 -25 -27 -25 -200 0 -173 0 -176 25 -200 13
-14 36 -25 50 -25 14 0 37 11 50 25 20 19 25 34 25 75 l0 50 400 0 401 0 24
25 c45 44 35 69 -73 177 -108 108 -133 118 -177 73 -30 -30 -32 -64 -4 -99
l20 -26 -295 0 -296 0 0 50 c0 41 -5 56 -25 75 -13 14 -36 25 -50 25 -14 0
-37 -11 -50 -25z"/>
<path d="M14275 13025 c-25 -24 -25 -27 -25 -200 0 -173 0 -176 25 -200 13
-14 36 -25 50 -25 14 0 37 11 50 25 20 19 25 34 25 75 l0 50 375 0 376 0 24
25 c45 44 35 69 -73 177 -108 108 -133 118 -177 73 -30 -30 -32 -64 -4 -99
l20 -26 -270 0 -271 0 0 50 c0 41 -5 56 -25 75 -13 14 -36 25 -50 25 -14 0
-37 -11 -50 -25z"/>
<path d="M51398 12602 l-98 -98 0 -179 0 -179 98 -98 98 -98 179 0 179 0 98
98 98 98 0 202 0 202 50 0 50 0 0 -275 0 -276 25 -24 c31 -32 69 -32 100 0
l25 24 0 326 0 326 -25 24 c-23 24 -28 25 -175 25 -147 0 -152 -1 -175 -25
l-25 -24 0 -223 0 -224 -53 -52 -53 -52 -120 0 -120 0 -52 53 -52 53 0 119 0
119 75 77 c84 86 92 113 50 154 -44 45 -69 35 -177 -73z"/>
<path d="M14525 12475 c-25 -24 -25 -25 -25 -225 l0 -200 -100 0 c-94 0 -103
-2 -125 -25 -14 -13 -25 -36 -25 -50 0 -14 11 -37 25 -50 22 -23 31 -25 125
-25 l100 0 0 -25 c0 -33 42 -75 75 -75 33 0 75 42 75 75 l0 25 250 0 251 0 24
25 c26 26 31 54 15 85 -9 16 -506 429 -570 473 -34 24 -67 21 -95 -8z m284
-339 l103 -86 -131 0 -131 0 0 106 0 105 28 -20 c15 -11 74 -58 131 -105z"/>
<path d="M52868 12121 l-277 -77 -236 -157 -235 -157 -158 -238 -158 -237 -53
-267 -53 -266 51 -280 c45 -246 55 -289 87 -350 19 -39 42 -76 51 -84 9 -7 65
-86 125 -175 l108 -163 223 -148 c122 -82 232 -154 243 -160 12 -6 148 -34
304 -63 l282 -51 266 53 265 52 261 156 261 156 138 205 c76 113 149 223 162
245 18 31 36 107 76 324 l51 283 -53 267 -53 266 -160 240 -161 240 -260 155
-260 155 -257 78 c-141 42 -267 77 -280 76 -13 -1 -148 -36 -300 -78z m546
-147 l221 -65 243 -145 243 -145 141 -212 142 -212 47 -234 47 -235 -48 -262
-48 -261 -141 -211 -140 -210 -238 -143 -237 -143 -235 -47 -235 -47 -262 48
-261 48 -211 141 c-146 97 -219 152 -236 178 -31 45 -36 41 104 68 103 20 140
44 140 90 0 36 -42 75 -81 75 -31 0 -31 0 -16 24 16 23 15 24 -26 30 -23 4
-49 7 -57 6 -69 -6 -82 -3 -110 29 -17 18 -54 43 -83 56 -38 17 -61 35 -78 62
l-24 38 -5 -60 c-6 -77 -16 -61 -40 66 -13 67 -30 120 -50 155 -30 54 -30 54
-30 215 0 142 2 167 20 203 11 23 33 104 48 181 l28 140 142 212 142 213 213
142 212 142 240 67 c132 37 253 67 269 68 16 1 129 -29 250 -65z m-1305 -1890
c2 -2 -10 -4 -27 -4 -18 0 -32 5 -32 10 0 9 47 4 59 -6z"/>
<path d="M52265 11420 c-44 -16 -87 -38 -97 -49 -16 -21 -45 -158 -35 -168 3
-3 41 16 84 43 76 46 80 47 158 47 44 0 85 -2 90 -3 6 -2 27 0 48 4 39 9 47
28 27 67 -13 23 -141 89 -172 88 -13 0 -59 -13 -103 -29z"/>
<path d="M53738 11365 c-37 -19 -72 -43 -77 -53 -5 -10 -24 -95 -41 -188 -17
-93 -33 -181 -36 -195 -5 -26 -4 -27 61 -31 77 -5 99 -21 99 -73 0 -55 -22
-69 -114 -73 -80 -4 -80 -4 -80 -32 0 -15 9 -35 20 -45 27 -25 21 -39 -21 -45
-19 -3 -33 -10 -32 -16 3 -17 -76 -9 -95 9 -8 9 -16 31 -16 49 -1 30 -4 33
-33 34 -47 1 -117 73 -117 120 0 43 19 62 71 72 l41 7 -149 165 c-214 236
-196 222 -332 256 l-117 28 -84 -27 c-106 -35 -136 -57 -136 -102 0 -19 5 -37
11 -41 7 -4 2 -16 -14 -33 -14 -14 -36 -48 -50 -76 -14 -27 -46 -70 -72 -95
-32 -31 -64 -79 -101 -152 -52 -104 -65 -148 -44 -148 6 0 5 -8 -2 -20 -12
-19 -13 -19 -33 0 -21 20 -21 20 -48 -8 -15 -15 -27 -38 -27 -50 0 -19 3 -20
28 -11 52 18 110 -26 100 -77 -2 -7 6 -19 17 -27 18 -14 23 -9 91 93 73 108
94 125 140 114 17 -4 26 2 44 31 15 24 42 46 81 66 48 24 59 34 59 54 0 18 5
25 20 25 15 0 20 -7 20 -25 0 -26 15 -34 23 -12 4 8 8 9 14 2 4 -6 46 -35 93
-65 93 -61 134 -96 144 -124 3 -10 -1 -45 -10 -78 l-17 -59 25 -27 c13 -15 88
-96 166 -180 86 -93 142 -160 142 -173 0 -11 5 -29 10 -39 12 -22 195 -163
234 -181 20 -10 52 -6 166 16 78 15 150 35 161 44 10 9 77 142 148 296 l130
280 -56 6 c-30 4 -62 14 -71 23 -23 23 -20 76 8 113 23 32 23 32 49 14 49 -33
49 -33 70 9 l20 41 -25 9 c-30 12 -49 56 -37 90 10 31 47 50 96 50 20 0 37 4
37 9 0 4 -24 66 -53 137 -42 104 -67 149 -130 231 -42 56 -86 107 -97 113 -10
5 -61 10 -112 10 -86 -1 -98 -4 -160 -35z m177 -156 c-9 -17 -19 -29 -22 -26
-5 5 25 57 33 57 3 0 -3 -14 -11 -31z m-1298 -101 c-3 -8 -6 -5 -6 6 -1 11 2
17 5 13 3 -3 4 -12 1 -19z m224 -255 c-8 -14 -10 -9 -10 27 1 42 1 43 10 18 7
-18 7 -33 0 -45z m103 -56 c5 -21 4 -21 -14 3 -23 29 -26 48 -6 31 8 -6 16
-22 20 -34z m707 -184 l-20 -38 -1 37 c0 27 5 38 18 40 25 6 25 4 3 -39z"/>
<path d="M16094 12047 l-251 -52 -237 -157 -236 -158 -148 -222 c-82 -123
-154 -233 -160 -244 -6 -12 -35 -149 -63 -305 l-52 -283 32 -176 c17 -96 41
-226 53 -289 l21 -115 158 -238 159 -238 238 -158 237 -158 267 -53 266 -53
282 51 c156 29 292 57 304 63 11 6 121 78 244 160 l223 149 158 238 158 237
21 115 c12 63 36 193 53 289 l32 176 -52 283 c-28 156 -57 293 -63 305 -6 11
-78 121 -160 243 l-148 223 -223 148 c-122 82 -231 154 -243 160 -24 13 -559
113 -596 111 -12 0 -136 -24 -274 -52z m562 -151 l241 -44 212 -141 211 -141
141 -211 141 -212 48 -261 48 -261 -48 -261 -48 -261 -141 -212 -141 -211
-211 -141 -212 -141 -261 -48 -262 -48 -235 47 -234 47 -212 142 -213 142
-141 212 -141 211 -29 161 c-67 376 -65 347 -44 470 10 61 30 179 46 262 l27
152 141 211 141 211 213 142 212 142 230 47 c127 26 241 45 255 43 14 -2 134
-24 266 -48z"/>
<path d="M16988 11265 c-37 -19 -72 -43 -77 -54 -7 -13 -72 -342 -84 -421 0
-3 5 -18 11 -33 18 -43 16 -49 -31 -95 -30 -29 -49 -41 -60 -36 -15 6 -123
132 -382 448 -54 66 -101 113 -119 121 -17 7 -74 23 -127 35 l-96 23 -114 -28
c-63 -15 -123 -36 -134 -46 -11 -10 -97 -133 -190 -274 -94 -140 -175 -255
-181 -255 -6 0 -20 -10 -32 -23 -19 -20 -22 -35 -22 -100 0 -64 5 -87 26 -130
45 -90 56 -97 148 -97 l81 0 183 183 183 182 91 -95 c50 -52 198 -210 329
-350 l237 -255 121 -60 120 -59 71 17 c64 15 74 15 93 2 28 -20 60 -19 86 3
12 9 70 123 130 252 59 129 125 271 146 315 55 117 155 366 155 387 0 10 -27
71 -59 136 -55 110 -66 124 -174 230 l-114 112 -74 0 c-64 -1 -83 -6 -141 -35z"/>
</g>
</svg>
