<?xml version="1.0" encoding="UTF-8" standalone="no"?>
<!-- Created with Inkscape (http://www.inkscape.org/) -->

<svg
   version="1.1"
   id="svg2"
   width="347.84"
   height="396.16"
   viewBox="0 0 347.84 396.16"
   sodipodi:docname="CORREDOR BOLSA GRIS.svg"
   inkscape:version="1.2.2 (732a01da63, 2022-12-09)"
   xmlns:inkscape="http://www.inkscape.org/namespaces/inkscape"
   xmlns:sodipodi="http://sodipodi.sourceforge.net/DTD/sodipodi-0.dtd"
   xmlns="http://www.w3.org/2000/svg"
   xmlns:svg="http://www.w3.org/2000/svg">
  <defs
     id="defs6" />
  <sodipodi:namedview
     id="namedview4"
     pagecolor="#505050"
     bordercolor="#eeeeee"
     borderopacity="1"
     inkscape:showpageshadow="0"
     inkscape:pageopacity="0"
     inkscape:pagecheckerboard="0"
     inkscape:deskcolor="#505050"
     showgrid="false"
     inkscape:zoom="2.1127827"
     inkscape:cx="174.41453"
     inkscape:cy="135.3665"
     inkscape:window-width="1920"
     inkscape:window-height="1017"
     inkscape:window-x="-8"
     inkscape:window-y="-8"
     inkscape:window-maximized="1"
     inkscape:current-layer="g8" />
  <g
     inkscape:groupmode="layer"
     inkscape:label="Image"
     id="g8">
    <path
       style="fill:#a8aaac;stroke:none;stroke-width:0.32"
       d="M 221.44,0.13582016 C 207.47264,1.9750784 194.60512,7.15152 183.04,15.270624 c -8.248,5.7904 -15.66912,14.398752 -25.6,17.232736 -7.77312,2.21792 -15.76736,0.53632 -23.68,1.50816 -5.69824,0.69984 -10.84928,3.09888 -15.36,6.59264 -3.1248,2.42048 -5.99008,6.00704 -6.82592,9.95584 -1.08928,5.1456 4.55328,5.51968 8.10592,6.78976 9.84768,3.51968 17.26752,11.71392 23.54432,19.77024 10.02464,12.86656 15.40096,28.192 23.95168,41.92 13.9152,22.34016 40.23264,44.5616 68.344,41.18848 29.05248,-3.48576 59.70944,-22.41664 69.2752,-51.10848 2.70912,-8.12608 3.3648,-16.45952 3.3648,-24.96 0,-22.49952 -6.94592,-45.97344 -23.3648,-62.067424 C 273.21344,10.739872 258.1056,4.221632 242.24,1.5742976 235.5392,0.4562112 228.23712,-0.7592576 221.44,0.13582016 M 256,10.24 c 12.7104,5.284608 27.77696,15.012864 35.2,26.88 L 255.68,10.56 256,10.24 M 60.48,23.816064 C 48.16032,25.49296 33.22368,34.3952 29.678752,47.04 23.424704,69.34816 45.1824,94.05184 67.84,91.10752 78.75616,89.68896 77.54304,77.45824 82.0112,69.76 84.1168,66.13184 87.128,62.72192 90.56,60.30048 93.06112,58.536 96.60832,57.38464 97.38112,54.08 98.48736,49.34784 94.59456,43.8624 91.9584,40.32 84.7376,30.616416 73.25472,22.077184 60.48,23.816064 M 72.64,27.52 c 2.88448,1.242976 6.63712,3.47952 8,6.4 l -8.32,-6.08 0.32,-0.32 m 35.52,40.14976 C 97.32864,68.74624 93.78144,81.36 92.29248,90.24 c -2.66592,15.89664 -2.10368,30.81024 -0.39936,46.72 0.57152,5.33568 1.20032,10.64896 1.57568,16 0.16832,2.40448 0.8928,5.39584 -0.21216,7.67872 -1.29216,2.67072 -4.32736,2.63104 -6.85664,2.3328 -5.38048,-0.63456 -10.67264,-0.97056 -16,-2.1472 -15.20384,-3.35808 -29.72384,-9.38016 -45.12,-11.94528 -6.248224,-1.04096 -13.958528,-2.37504 -19.52,1.53504 -6.4531424,4.53696 -8.4212736,15.04256 -0.96,19.67616 7.947136,4.93568 18.809792,6.01632 27.84,7.70528 17.84544,3.33792 35.8,6.20576 53.76,8.85152 6.38656,0.9408 12.76064,2.05024 19.2,2.50144 2.47328,0.17344 5.7936,0.73472 7.93152,-0.94176 2.27264,-1.7824 1.98848,-5.79808 1.98848,-8.36672 0,-6.01056 -0.41248,-13.00288 0.92416,-18.88 1.46112,-6.42432 6.4592,-4.77728 9.46944,-0.32 3.43712,5.08928 5.14176,11.20192 7.92928,16.64 4.31616,8.41984 10.12736,16.32352 12.51552,25.6 0.80128,3.112 1.73152,6.70016 0.99232,9.92 -1.496,6.5168 -9.70048,12.74976 -14.23072,17.28 -11.5888,11.5888 -24.05984,22.784 -34.03072,35.84 -7.02976,9.20512 -10.67456,19.9408 -14.51072,30.72 -6.03328,16.95168 -11.01952,34.288 -16.18816,51.52 -2.25536,7.52 -4.3664,15.104 -6.26976,22.72 -1.01664,4.0672 -2.584,8.8896 -2.22496,13.12 0.43744,5.1552 4.76352,11.9552 10.50432,12.1184 5.45632,0.1536 9.5152,-5.4144 12.016,-9.5584 6.61408,-10.9632 10.88864,-23.7856 15.07392,-35.84 3.52576,-10.1536 7.16448,-20.272 10.76864,-30.4 3.09632,-8.69952 6.00928,-17.75936 11.00384,-25.6 8.99424,-14.11904 21.8912,-24.3424 35.6176,-33.49344 5.30112,-3.53408 10.6496,-8.57632 16.64,-10.8368 2.72768,-1.02944 5.5008,0.55232 7.68,2.14112 4.83168,3.52288 8.92992,8.18976 13.11872,12.42912 12.14368,12.28992 23.29984,25.53856 35.52128,37.76 4.80352,4.80352 10.24768,12.09472 17.28,13.50144 4.91424,0.98304 8.69536,-2.12128 12.48,-4.81632 4.31776,-3.07424 8.84384,-5.86496 13.44,-8.49984 14.89568,-8.53984 30.26016,-16.24576 45.44,-24.25536 8.9088,-4.70016 18.6432,-9.1568 26.56,-15.45472 6.2912,-5.00384 6.2176,-18.50784 -2.56,-21.56032 -6.4768,-2.25216 -14.6016,2.86688 -20.16,5.64608 -15.27776,7.63776 -30.48256,15.40128 -45.76,23.04 -5.12864,2.56416 -10.25312,5.32384 -15.68,7.21664 -2.47296,0.8624 -5.43328,1.50944 -7.68,-0.22368 -4.88384,-3.768 -8.12192,-10.71424 -11.33568,-15.87392 -5.28128,-8.47968 -10.2752,-17.192 -13.80832,-26.56 -3.71712,-9.85632 -5.91456,-20.01568 -10.77856,-29.44 C 207.616,190.5968 195.98304,177.7376 185.9616,164.48 173.51008,148.00768 162.11104,130.76192 149.71936,114.24 140.58496,102.0608 131.5136,89.80224 122.2016,77.76 118.98752,73.60352 114.17312,67.072 108.16,67.66976 M 72.32,102.856 c -10.61408,1.44544 -15.32768,15.10912 -19.06336,23.864 -1.45984,3.42176 -3.55328,8.0928 -1.98368,11.84 0.97312,2.32288 3.45472,3.60448 5.68704,4.4592 5.36864,2.05568 12.78656,4.01024 18.56,3.08 4.7584,-0.76672 3.5376,-6.08256 3.51968,-9.7792 -0.03136,-6.49888 -0.928,-13.01856 -0.95936,-19.52 -0.01792,-3.70336 0.86048,-8.67104 -0.6016,-12.1552 -0.89728,-2.13824 -3.19744,-2.056 -5.15872,-1.7888 z"
       id="path351" />
    <path
       style="fill:#000000;stroke-width:0.32"
       id="path302"
       d="" />
    <path
       style="fill:#000000;stroke-width:0.32"
       id="path300"
       d="" />
  </g>
</svg>
