<?xml version="1.0" encoding="UTF-8" standalone="no"?>
<!-- Created with Inkscape (http://www.inkscape.org/) -->

<svg
   version="1.1"
   id="svg2"
   width="547.20001"
   height="454.39999"
   viewBox="0 0 547.20001 454.39999"
   sodipodi:docname="EXPORTAR.svg"
   inkscape:version="1.2.2 (732a01da63, 2022-12-09)"
   xmlns:inkscape="http://www.inkscape.org/namespaces/inkscape"
   xmlns:sodipodi="http://sodipodi.sourceforge.net/DTD/sodipodi-0.dtd"
   xmlns="http://www.w3.org/2000/svg"
   xmlns:svg="http://www.w3.org/2000/svg">
  <defs
     id="defs6" />
  <sodipodi:namedview
     id="namedview4"
     pagecolor="#505050"
     bordercolor="#eeeeee"
     borderopacity="1"
     inkscape:showpageshadow="0"
     inkscape:pageopacity="0"
     inkscape:pagecheckerboard="0"
     inkscape:deskcolor="#505050"
     showgrid="false"
     inkscape:zoom="0.92099473"
     inkscape:cx="252.44444"
     inkscape:cy="294.24707"
     inkscape:window-width="1920"
     inkscape:window-height="1017"
     inkscape:window-x="-8"
     inkscape:window-y="-8"
     inkscape:window-maximized="1"
     inkscape:current-layer="g8" />
  <g
     inkscape:groupmode="layer"
     inkscape:label="Image"
     id="g8">
    <path
       style="fill:#3a3a3c;stroke:none;stroke-width:0.64"
       d="m 385.28001,14.72 v 96 c 0,13.74528 -1.62368,30.96128 8.9856,41.5744 11.04192,11.04576 27.32288,8.9856 41.5744,8.9856 h 96 v 205.43999 48.64 c 0,7.3024 0.16512,15.9072 -6.4096,20.71168 -6.79168,4.96256 -17.0496,3.60832 -24.9504,3.60832 h -55.68 H 266.88 216.32 c -8.40448,0 -18.30976,1.37664 -26.24,-1.9872 -7.73248,-3.28 -9.5072,-12.19264 -9.59744,-19.7728 -0.1728,-14.49792 2.45184,-31.1936 -0.14848,-45.44 -1.2864,-7.04512 -11.42976,-7.91744 -14.00192,-1.27744 -2.31488,5.9744 -0.57216,15.39264 -0.57216,21.75744 0,18.65408 -4.80192,47.81632 16,57.6704 9.64928,4.57088 20.35456,3.7696 30.72,3.7696 h 47.36 177.92001 71.04 c 12.96192,0 26.68736,-2.26816 33.5904,-14.72 6.89024,-12.42752 4.8096,-29.19936 4.8096,-42.88 v -85.76 V 199.68 167.04 c 0,-4.64 1.104,-10.97344 -0.57152,-15.36 -2.79488,-7.31584 -13.14688,-14.3584 -18.62848,-19.84 l -44.16,-44.160002 -60.16,-60.159999 -17.92,-17.9199992 c -2.88576,-2.8855039 -5.90272,-6.9969151 -9.6,-8.84542702 C 391.96161,-1.3445696 384.76737,0 380.16001,0 h -37.12 H 234.24 c -16.50368,0 -37.14368,-3.2414079 -52.48,4.0489087 -18.24448,8.6728193 -16,31.0063863 -16,47.7910903 V 183.68 c 0,14.42048 -0.84928,29.12896 0.0282,43.52 0.29824,4.88703 4.5952,8.68159 9.56928,7.16287 C 181.216,232.57407 180.48,226.3296 180.48,221.44 V 183.04 70.399998 c 0,-13.681151 -3.95968,-35.011071 2.82688,-47.359999 3.3504,-6.096895 9.45216,-7.160127 15.73312,-7.788159 11.6224,-1.162176 23.5136,-0.53184 35.2,-0.53184 h 151.04001 m 16,11.519999 80,80.000001 c 12.84736,12.84736 29.2256,25.47904 39.68,40.32 h -79.36 c -10.05632,0 -24.92288,2.6656 -33.91936,-2.704 -9.13536,-5.45152 -7.04064,-18.36992 -7.04064,-27.376 V 53.119999 c 0,-7.644032 -2.30848,-19.852992 0.64,-26.88 M 254.08,221.44 v 45.43999 h -91.52 c -43.20896,0 -84.819199,-2.53696 -120.319999,26.6336 -7.220224,5.9328 -13.483008,12.63296 -19.117057,20.0864 -6.803648,9.00032 -11.961536,18.91648 -15.9599999,29.44 C 2.152416,356.22719 0,370.58559 0,384.63999 h 47.360001 c 0,-31.71136 20.36864,-59.50656 51.200001,-68.20608 C 115.56544,311.63583 135.44,314.23999 152.96,314.23999 h 101.12 v 46.08 c 9.28576,-5.29024 17.80416,-13.00608 26.24001,-19.56864 13.10016,-10.19072 26.4096,-20.14336 39.68,-30.11264 7.49696,-5.63136 21.98784,-12.9856 26.24,-21.35872 C 314.05313,269.23583 287.01377,240.20415 254.08,221.44 Z"
       id="path300" />
  </g>
</svg>
